<svg width="160" height="120" viewBox="0 0 160 120" fill="none" xmlns="http://www.w3.org/2000/svg">
<path d="M79.9999 17.672C56.6259 17.672 37.6819 36.62 37.6819 59.99C37.6819 69.058 40.5459 77.454 45.3999 84.344L41.4899 99.562L58.6299 96.816C62.7319 98.14 65.9459 101.874 79.9999 102.306C103.36 103.02 122.318 83.36 122.318 59.99C122.318 36.62 103.372 17.672 79.9999 17.672Z" fill="#9FDCEC"/>
<path d="M95.7581 39.522C95.7501 39.064 95.616 38.548 95.36 38.092C95.102 37.634 94.75 37.262 94.3701 36.93C93.5981 36.268 92.672 35.822 91.64 35.438C90.602 35.052 89.448 34.75 88.184 34.508C86.918 34.272 85.548 34.088 84.09 33.976C82.632 33.864 81.092 33.824 79.488 33.862C77.882 33.902 76.2141 34.014 74.51 34.258C72.8081 34.502 71.064 34.848 69.326 35.456C68.458 35.764 67.586 36.134 66.736 36.696C66.314 36.984 65.89 37.32 65.516 37.808C65.332 38.054 65.16 38.338 65.048 38.674C65.028 38.728 65.02 38.788 65.006 38.844C64.546 39.062 64.21 39.364 64.246 39.68C64.32 40.396 64.5021 41.308 64.6601 42.516C64.8121 43.726 64.9921 45.184 65.2021 46.852C65.3901 48.528 65.602 50.414 65.834 52.478C66.054 54.542 66.292 56.788 66.548 59.176C66.794 61.562 67.052 64.094 67.322 66.726C67.582 69.366 67.8541 72.108 68.1341 74.924L68.5081 78.79L68.504 78.69C68.51 79.706 68.838 80.694 69.344 81.504C69.852 82.314 70.5021 82.994 71.2161 83.532C72.5361 84.536 74.0361 85.166 75.5641 85.588C77.1001 86.006 78.68 86.168 80.254 86.15C81.824 86.126 83.4021 85.904 84.9261 85.444C86.448 84.986 87.924 84.28 89.194 83.196C89.8 82.652 90.3901 82.04 90.8001 81.26C91.2201 80.494 91.4841 79.604 91.496 78.688L91.492 78.788L91.9101 74.482C92.1861 71.676 92.4561 68.944 92.7181 66.322C92.9881 63.7 93.246 61.188 93.486 58.82C93.74 56.452 93.976 54.23 94.192 52.19C94.426 50.15 94.638 48.29 94.82 46.648C95.028 45.006 95.204 43.58 95.352 42.406C95.51 41.232 95.688 40.318 95.756 39.682C95.758 39.666 95.746 39.656 95.746 39.642C95.744 39.604 95.7581 39.558 95.7581 39.522ZM67.1321 39.038C67.2961 38.818 67.562 38.588 67.866 38.386C68.486 37.982 69.236 37.66 70.004 37.402C71.544 36.878 73.184 36.57 74.79 36.362C76.398 36.172 77.988 36.092 79.51 36.1C81.038 36.104 82.5 36.194 83.866 36.348C85.23 36.504 86.496 36.74 87.63 37.03C88.758 37.318 89.76 37.658 90.562 38.042C91.36 38.416 91.968 38.846 92.238 39.184C92.332 39.292 92.3621 39.382 92.3701 39.456C92.368 39.48 92.342 39.498 92.344 39.522C92.344 39.512 92.362 39.526 92.374 39.516C92.37 39.526 92.378 39.546 92.374 39.552C92.37 39.556 92.368 39.552 92.368 39.556C92.374 39.572 92.392 39.584 92.4 39.598C92.38 39.66 92.348 39.736 92.266 39.834C92.028 40.16 91.438 40.586 90.664 40.962C89.88 41.338 88.906 41.694 87.788 41.98C86.6721 42.274 85.42 42.514 84.068 42.68C82.714 42.836 81.2661 42.938 79.746 42.948C78.232 42.968 76.648 42.892 75.042 42.716C73.44 42.522 71.802 42.23 70.25 41.728C69.476 41.484 68.716 41.18 68.07 40.786C67.418 40.416 66.922 39.86 66.93 39.572C66.912 39.428 66.9641 39.262 67.1321 39.038ZM91.6201 51.952C91.4661 53.998 91.294 56.228 91.114 58.6C90.916 60.974 90.706 63.492 90.49 66.116C90.268 68.74 90.034 71.478 89.794 74.286L89.4121 78.596C89.4081 78.626 89.406 78.656 89.406 78.684V78.69C89.396 79.764 88.7941 80.828 87.8421 81.644C86.878 82.486 85.644 83.108 84.33 83.502C83.0161 83.902 81.622 84.106 80.226 84.126C78.83 84.142 77.4241 83.996 76.0921 83.628C74.7701 83.258 73.498 82.7 72.478 81.904C71.366 81.05 70.594 79.886 70.598 78.694C70.598 78.666 70.598 78.636 70.594 78.608V78.6L70.246 74.73C70.008 71.914 69.7761 69.166 69.5501 66.524C69.3321 63.886 69.118 61.348 68.92 58.96C68.736 56.568 68.564 54.314 68.404 52.244C68.26 50.172 68.122 48.278 68.006 46.596C67.916 45.208 67.8441 44.002 67.7861 42.924C68.3921 43.222 68.998 43.48 69.604 43.686C71.344 44.264 73.084 44.592 74.782 44.822C76.482 45.05 78.144 45.16 79.738 45.188C81.332 45.22 82.864 45.168 84.31 45.052C85.754 44.93 87.112 44.748 88.36 44.502C89.612 44.262 90.75 43.946 91.768 43.562C91.92 43.502 92.052 43.428 92.198 43.364C92.148 44.278 92.088 45.262 92.016 46.392C91.896 48.036 91.7661 49.902 91.6201 51.952Z" fill="black"/>
<path d="M92.37 39.554C92.366 39.54 92.348 39.534 92.346 39.52C92.294 39.55 92.336 39.592 92.37 39.554Z" fill="black"/>
<path d="M92.7099 39.55C92.7139 39.544 92.7059 39.524 92.7099 39.514C92.6979 39.524 92.6799 39.51 92.6799 39.52C92.6819 39.534 92.6999 39.54 92.7039 39.554C92.7059 39.55 92.7079 39.554 92.7099 39.55Z" fill="white"/>
<path d="M92.574 39.184C92.304 38.846 91.698 38.414 90.898 38.042C90.098 37.66 89.096 37.318 87.966 37.03C86.834 36.74 85.566 36.504 84.202 36.348C82.836 36.194 81.374 36.104 79.846 36.1C78.322 36.092 76.732 36.172 75.126 36.362C73.52 36.57 71.88 36.878 70.34 37.402C69.57 37.66 68.82 37.982 68.202 38.386C67.898 38.59 67.632 38.818 67.468 39.038C67.3 39.262 67.248 39.428 67.264 39.572C67.256 39.862 67.752 40.418 68.404 40.786C69.05 41.178 69.81 41.484 70.584 41.728C72.136 42.23 73.776 42.522 75.376 42.716C76.982 42.892 78.566 42.968 80.08 42.948C81.6 42.938 83.048 42.836 84.402 42.68C85.756 42.514 87.008 42.276 88.122 41.98C89.24 41.694 90.214 41.34 90.998 40.962C91.772 40.586 92.362 40.16 92.6 39.834C92.682 39.736 92.716 39.66 92.734 39.598C92.726 39.582 92.708 39.57 92.702 39.556C92.668 39.594 92.628 39.552 92.678 39.522C92.676 39.496 92.702 39.48 92.704 39.456C92.7 39.38 92.668 39.292 92.574 39.184Z" fill="white"/>
<path d="M92.2939 39.55C92.2979 39.546 92.2939 39.532 92.2939 39.52H92.2639C92.2659 39.534 92.2839 39.54 92.2879 39.554C92.2899 39.55 92.2919 39.554 92.2939 39.55Z" fill="white"/>
<path d="M70.5159 78.69C70.5119 79.884 71.2859 81.048 72.3959 81.9C73.4159 82.696 74.6879 83.256 76.0099 83.624C77.3419 83.992 78.7479 84.138 80.1439 84.122C81.5399 84.102 82.9339 83.9 84.2479 83.498C85.5619 83.106 86.7939 82.482 87.7599 81.64C88.7139 80.826 89.3139 79.762 89.3239 78.686V78.68C89.3239 78.652 89.3259 78.622 89.3299 78.592L89.7119 74.282C89.9519 71.474 90.1839 68.738 90.4079 66.112C90.6239 63.488 90.8359 60.97 91.0319 58.596C91.2119 56.222 91.3839 53.994 91.5379 51.948C91.6839 49.9 91.8159 48.032 91.9319 46.384C92.0039 45.256 92.0619 44.27 92.1139 43.356C91.9679 43.418 91.8359 43.492 91.6839 43.554C90.6659 43.936 89.5279 44.254 88.2759 44.494C87.0279 44.74 85.6679 44.924 84.2259 45.044C82.7799 45.162 81.2479 45.212 79.6539 45.18C78.0599 45.152 76.3979 45.044 74.6979 44.814C72.9999 44.584 71.2599 44.256 69.5199 43.678C68.9139 43.472 68.3079 43.216 67.7019 42.916C67.7599 43.994 67.8319 45.2 67.9219 46.588C68.0399 48.27 68.1759 50.164 68.3199 52.236C68.4799 54.306 68.6519 56.56 68.8359 58.952C69.0359 61.34 69.2479 63.878 69.4659 66.516C69.6899 69.156 69.9239 71.904 70.1619 74.722L70.5099 78.592V78.6C70.5159 78.63 70.5159 78.662 70.5159 78.69Z" fill="white"/>
</svg>
