<svg width="160" height="120" viewBox="0 0 160 120" fill="none" xmlns="http://www.w3.org/2000/svg">
<path d="M108 24H106V26H108V24Z" fill="#1B1E1F"/>
<path d="M108 20H106V22H108V20Z" fill="#1B1E1F"/>
<path d="M108 36H106V38H108V36Z" fill="#1B1E1F"/>
<path d="M86 44H84V46H86V44Z" fill="#1B1E1F"/>
<path d="M90 44H88V46H90V44Z" fill="#1B1E1F"/>
<path d="M96 44H94V46H96V44Z" fill="#1B1E1F"/>
<path d="M96 42H94V44H96V42Z" fill="#1B1E1F"/>
<path d="M96 40H94V42H96V40Z" fill="#1B1E1F"/>
<path d="M96 36H94V38H96V36Z" fill="#1B1E1F"/>
<path d="M98 44H96V46H98V44Z" fill="#1B1E1F"/>
<path d="M98 40H96V42H98V40Z" fill="#1B1E1F"/>
<path d="M98 36H96V38H98V36Z" fill="#1B1E1F"/>
<path d="M100 44H98V46H100V44Z" fill="#1B1E1F"/>
<path d="M90 46H88V48H90V46Z" fill="#1B1E1F"/>
<path d="M90 48H88V50H90V48Z" fill="#1B1E1F"/>
<path d="M92 46H90V48H92V46Z" fill="#1B1E1F"/>
<path d="M94 44H92V46H94V44Z" fill="#1B1E1F"/>
<path d="M94 42H92V44H94V42Z" fill="#1B1E1F"/>
<path d="M100 48H98V50H100V48Z" fill="#1B1E1F"/>
<path d="M108 40H106V42H108V40Z" fill="#1B1E1F"/>
<path d="M94 50H92V52H94V50Z" fill="#1B1E1F"/>
<path d="M98 48H96V50H98V48Z" fill="#1B1E1F"/>
<path d="M88 50H86V52H88V50Z" fill="#1B1E1F"/>
<path d="M88 44H86V46H88V44Z" fill="#1B1E1F"/>
<path d="M86 42H84V44H86V42Z" fill="#1B1E1F"/>
<path d="M86 40H84V42H86V40Z" fill="#1B1E1F"/>
<path d="M86 38H84V40H86V38Z" fill="#1B1E1F"/>
<path d="M90 40H88V42H90V40Z" fill="#1B1E1F"/>
<path d="M92 40H90V42H92V40Z" fill="#1B1E1F"/>
<path d="M90 38H88V40H90V38Z" fill="#1B1E1F"/>
<path d="M90 36H88V38H90V36Z" fill="#1B1E1F"/>
<path d="M90 42H88V44H90V42Z" fill="#1B1E1F"/>
<path d="M88 42H86V44H88V42Z" fill="#1B1E1F"/>
<path d="M100 50H98V52H100V50Z" fill="#1B1E1F"/>
<path d="M88 54H86V56H88V54Z" fill="#1B1E1F"/>
<path d="M90 52H88V54H90V52Z" fill="#1B1E1F"/>
<path d="M92 52H90V54H92V52Z" fill="#1B1E1F"/>
<path d="M92 54H90V56H92V54Z" fill="#1B1E1F"/>
<path d="M96 50H94V52H96V50Z" fill="#1B1E1F"/>
<path d="M98 52H96V54H98V52Z" fill="#1B1E1F"/>
<path d="M100 52H98V54H100V52Z" fill="#1B1E1F"/>
<path d="M100 36H98V38H100V36Z" fill="#1B1E1F"/>
<path d="M100 38H98V40H100V38Z" fill="#1B1E1F"/>
<path d="M100 40H98V42H100V40Z" fill="#1B1E1F"/>
<path d="M90 54H88V56H90V54Z" fill="#1B1E1F"/>
<path d="M94 54H92V56H94V54Z" fill="#1B1E1F"/>
<path d="M96 54H94V56H96V54Z" fill="#1B1E1F"/>
<path d="M88 56H86V58H88V56Z" fill="#1B1E1F"/>
<path d="M86 56H84V58H86V56Z" fill="#1B1E1F"/>
<path d="M90 56H88V58H90V56Z" fill="#1B1E1F"/>
<path d="M98 56H96V58H98V56Z" fill="#1B1E1F"/>
<path d="M100 56H98V58H100V56Z" fill="#1B1E1F"/>
<path d="M100 58H98V60H100V58Z" fill="#1B1E1F"/>
<path d="M86 48H84V50H86V48Z" fill="#1B1E1F"/>
<path d="M90 60H88V62H90V60Z" fill="#1B1E1F"/>
<path d="M92 60H90V62H92V60Z" fill="#1B1E1F"/>
<path d="M92 58H90V60H92V58Z" fill="#1B1E1F"/>
<path d="M88 60H86V62H88V60Z" fill="#1B1E1F"/>
<path d="M86 60H84V62H86V60Z" fill="#1B1E1F"/>
<path d="M96 60H94V62H96V60Z" fill="#1B1E1F"/>
<path d="M98 60H96V62H98V60Z" fill="#1B1E1F"/>
<path d="M108 60H106V62H108V60Z" fill="#1B1E1F"/>
<path d="M108 66H106V68H108V66Z" fill="#1B1E1F"/>
<path d="M108 64H106V66H108V64Z" fill="#1B1E1F"/>
<path d="M108 72H106V74H108V72Z" fill="#1B1E1F"/>
<path d="M108 76H106V78H108V76Z" fill="#1B1E1F"/>
<path d="M110 30H108V32H110V30Z" fill="#1B1E1F"/>
<path d="M110 32H108V34H110V32Z" fill="#1B1E1F"/>
<path d="M110 34H108V36H110V34Z" fill="#1B1E1F"/>
<path d="M110 28H108V30H110V28Z" fill="#1B1E1F"/>
<path d="M110 24H108V26H110V24Z" fill="#1B1E1F"/>
<path d="M110 20H108V22H110V20Z" fill="#1B1E1F"/>
<path d="M110 40H108V42H110V40Z" fill="#1B1E1F"/>
<path d="M110 58H108V60H110V58Z" fill="#1B1E1F"/>
<path d="M110 70H108V72H110V70Z" fill="#1B1E1F"/>
<path d="M110 56H108V58H110V56Z" fill="#1B1E1F"/>
<path d="M110 68H108V70H110V68Z" fill="#1B1E1F"/>
<path d="M112 26H110V28H112V26Z" fill="#1B1E1F"/>
<path d="M112 28H110V30H112V28Z" fill="#1B1E1F"/>
<path d="M112 22H110V24H112V22Z" fill="#1B1E1F"/>
<path d="M112 24H110V26H112V24Z" fill="#1B1E1F"/>
<path d="M112 38H110V40H112V38Z" fill="#1B1E1F"/>
<path d="M112 40H110V42H112V40Z" fill="#1B1E1F"/>
<path d="M112 58H110V60H112V58Z" fill="#1B1E1F"/>
<path d="M112 62H110V64H112V62Z" fill="#1B1E1F"/>
<path d="M112 56H110V58H112V56Z" fill="#1B1E1F"/>
<path d="M112 60H110V62H112V60Z" fill="#1B1E1F"/>
<path d="M114 30H112V32H114V30Z" fill="#1B1E1F"/>
<path d="M114 32H112V34H114V32Z" fill="#1B1E1F"/>
<path d="M114 26H112V28H114V26Z" fill="#1B1E1F"/>
<path d="M114 28H112V30H114V28Z" fill="#1B1E1F"/>
<path d="M114 22H112V24H114V22Z" fill="#1B1E1F"/>
<path d="M114 24H112V26H114V24Z" fill="#1B1E1F"/>
<path d="M114 38H112V40H114V38Z" fill="#1B1E1F"/>
<path d="M114 58H112V60H114V58Z" fill="#1B1E1F"/>
<path d="M114 70H112V72H114V70Z" fill="#1B1E1F"/>
<path d="M114 66H112V68H114V66Z" fill="#1B1E1F"/>
<path d="M114 74H112V76H114V74Z" fill="#1B1E1F"/>
<path d="M114 64H112V66H114V64Z" fill="#1B1E1F"/>
<path d="M114 68H112V70H114V68Z" fill="#1B1E1F"/>
<path d="M116 34H114V36H116V34Z" fill="#1B1E1F"/>
<path d="M116 24H114V26H116V24Z" fill="#1B1E1F"/>
<path d="M116 36H114V38H116V36Z" fill="#1B1E1F"/>
<path d="M116 40H114V42H116V40Z" fill="#1B1E1F"/>
<path d="M116 62H114V64H116V62Z" fill="#1B1E1F"/>
<path d="M116 70H114V72H116V70Z" fill="#1B1E1F"/>
<path d="M116 56H114V58H116V56Z" fill="#1B1E1F"/>
<path d="M116 60H114V62H116V60Z" fill="#1B1E1F"/>
<path d="M116 74H114V76H116V74Z" fill="#1B1E1F"/>
<path d="M116 64H114V66H116V64Z" fill="#1B1E1F"/>
<path d="M116 72H114V74H116V72Z" fill="#1B1E1F"/>
<path d="M118 32H116V34H118V32Z" fill="#1B1E1F"/>
<path d="M122 32H120V34H122V32Z" fill="#1B1E1F"/>
<path d="M118 34H116V36H118V34Z" fill="#1B1E1F"/>
<path d="M118 26H116V28H118V26Z" fill="#1B1E1F"/>
<path d="M118 22H116V24H118V22Z" fill="#1B1E1F"/>
<path d="M118 36H116V38H118V36Z" fill="#1B1E1F"/>
<path d="M118 60H116V62H118V60Z" fill="#1B1E1F"/>
<path d="M118 66H116V68H118V66Z" fill="#1B1E1F"/>
<path d="M118 74H116V76H118V74Z" fill="#1B1E1F"/>
<path d="M120 26H118V28H120V26Z" fill="#1B1E1F"/>
<path d="M120 28H118V30H120V28Z" fill="#1B1E1F"/>
<path d="M120 22H118V24H120V22Z" fill="#1B1E1F"/>
<path d="M120 24H118V26H120V24Z" fill="#1B1E1F"/>
<path d="M122 26H120V28H122V26Z" fill="#1B1E1F"/>
<path d="M122 28H120V30H122V28Z" fill="#1B1E1F"/>
<path d="M122 22H120V24H122V22Z" fill="#1B1E1F"/>
<path d="M122 20H120V22H122V20Z" fill="#1B1E1F"/>
<path d="M122 24H120V26H122V24Z" fill="#1B1E1F"/>
<path d="M120 36H118V38H120V36Z" fill="#1B1E1F"/>
<path d="M120 38H118V40H120V38Z" fill="#1B1E1F"/>
<path d="M120 40H118V42H120V40Z" fill="#1B1E1F"/>
<path d="M120 62H118V64H120V62Z" fill="#1B1E1F"/>
<path d="M120 56H118V58H120V56Z" fill="#1B1E1F"/>
<path d="M120 60H118V62H120V60Z" fill="#1B1E1F"/>
<path d="M120 64H118V66H120V64Z" fill="#1B1E1F"/>
<path d="M120 72H118V74H120V72Z" fill="#1B1E1F"/>
<path d="M120 68H118V70H120V68Z" fill="#1B1E1F"/>
<path d="M122 34H120V36H122V34Z" fill="#1B1E1F"/>
<path d="M122 36H120V38H122V36Z" fill="#1B1E1F"/>
<path d="M122 38H120V40H122V38Z" fill="#1B1E1F"/>
<path d="M122 40H120V42H122V40Z" fill="#1B1E1F"/>
<path d="M122 58H120V60H122V58Z" fill="#1B1E1F"/>
<path d="M122 70H120V72H122V70Z" fill="#1B1E1F"/>
<path d="M122 66H120V68H122V66Z" fill="#1B1E1F"/>
<path d="M122 72H120V74H122V72Z" fill="#1B1E1F"/>
<path d="M122 76H120V78H122V76Z" fill="#1B1E1F"/>
<path d="M124 26H122V28H124V26Z" fill="#1B1E1F"/>
<path d="M124 22H122V24H124V22Z" fill="#1B1E1F"/>
<path d="M124 20H122V22H124V20Z" fill="#1B1E1F"/>
<path d="M124 34H122V36H124V34Z" fill="#1B1E1F"/>
<path d="M124 36H122V38H124V36Z" fill="#1B1E1F"/>
<path d="M124 40H122V42H124V40Z" fill="#1B1E1F"/>
<path d="M124 58H122V60H124V58Z" fill="#1B1E1F"/>
<path d="M124 66H122V68H124V66Z" fill="#1B1E1F"/>
<path d="M124 68H122V70H124V68Z" fill="#1B1E1F"/>
<path d="M124 76H122V78H124V76Z" fill="#1B1E1F"/>
<path d="M126 32H124V34H126V32Z" fill="#1B1E1F"/>
<path d="M126 28H124V30H126V28Z" fill="#1B1E1F"/>
<path d="M126 34H124V36H126V34Z" fill="#1B1E1F"/>
<path d="M126 58H124V60H126V58Z" fill="#1B1E1F"/>
<path d="M126 62H124V64H126V62Z" fill="#1B1E1F"/>
<path d="M126 70H124V72H126V70Z" fill="#1B1E1F"/>
<path d="M126 56H124V58H126V56Z" fill="#1B1E1F"/>
<path d="M126 60H124V62H126V60Z" fill="#1B1E1F"/>
<path d="M126 66H124V68H126V66Z" fill="#1B1E1F"/>
<path d="M126 64H124V66H126V64Z" fill="#1B1E1F"/>
<path d="M126 68H124V70H126V68Z" fill="#1B1E1F"/>
<path d="M126 76H124V78H126V76Z" fill="#1B1E1F"/>
<path d="M128 36H126V38H128V36Z" fill="#1B1E1F"/>
<path d="M128 42H126V44H128V42Z" fill="#1B1E1F"/>
<path d="M128 44H126V46H128V44Z" fill="#1B1E1F"/>
<path d="M128 50H126V52H128V50Z" fill="#1B1E1F"/>
<path d="M128 54H126V56H128V54Z" fill="#1B1E1F"/>
<path d="M128 58H126V60H128V58Z" fill="#1B1E1F"/>
<path d="M128 70H126V72H128V70Z" fill="#1B1E1F"/>
<path d="M128 60H126V62H128V60Z" fill="#1B1E1F"/>
<path d="M128 74H126V76H128V74Z" fill="#1B1E1F"/>
<path d="M128 72H126V74H128V72Z" fill="#1B1E1F"/>
<path d="M128 68H126V70H128V68Z" fill="#1B1E1F"/>
<path d="M128 76H126V78H128V76Z" fill="#1B1E1F"/>
<path d="M130 42H128V44H130V42Z" fill="#1B1E1F"/>
<path d="M130 44H128V46H130V44Z" fill="#1B1E1F"/>
<path d="M130 46H128V48H130V46Z" fill="#1B1E1F"/>
<path d="M130 48H128V50H130V48Z" fill="#1B1E1F"/>
<path d="M130 52H128V54H130V52Z" fill="#1B1E1F"/>
<path d="M130 54H128V56H130V54Z" fill="#1B1E1F"/>
<path d="M130 58H128V60H130V58Z" fill="#1B1E1F"/>
<path d="M130 60H128V62H130V60Z" fill="#1B1E1F"/>
<path d="M130 64H128V66H130V64Z" fill="#1B1E1F"/>
<path d="M130 68H128V70H130V68Z" fill="#1B1E1F"/>
<path d="M130 76H128V78H130V76Z" fill="#1B1E1F"/>
<path d="M132 36H130V38H132V36Z" fill="#1B1E1F"/>
<path d="M132 38H130V40H132V38Z" fill="#1B1E1F"/>
<path d="M132 44H130V46H132V44Z" fill="#1B1E1F"/>
<path d="M132 48H130V50H132V48Z" fill="#1B1E1F"/>
<path d="M132 52H130V54H132V52Z" fill="#1B1E1F"/>
<path d="M132 54H130V56H132V54Z" fill="#1B1E1F"/>
<path d="M132 70H130V72H132V70Z" fill="#1B1E1F"/>
<path d="M132 60H130V62H132V60Z" fill="#1B1E1F"/>
<path d="M132 72H130V74H132V72Z" fill="#1B1E1F"/>
<path d="M132 68H130V70H132V68Z" fill="#1B1E1F"/>
<path d="M132 76H130V78H132V76Z" fill="#1B1E1F"/>
<path d="M134 36H132V38H134V36Z" fill="#1B1E1F"/>
<path d="M134 40H132V42H134V40Z" fill="#1B1E1F"/>
<path d="M134 50H132V52H134V50Z" fill="#1B1E1F"/>
<path d="M134 52H132V54H134V52Z" fill="#1B1E1F"/>
<path d="M134 58H132V60H134V58Z" fill="#1B1E1F"/>
<path d="M134 62H132V64H134V62Z" fill="#1B1E1F"/>
<path d="M134 70H132V72H134V70Z" fill="#1B1E1F"/>
<path d="M134 56H132V58H134V56Z" fill="#1B1E1F"/>
<path d="M134 60H132V62H134V60Z" fill="#1B1E1F"/>
<path d="M134 66H132V68H134V66Z" fill="#1B1E1F"/>
<path d="M134 64H132V66H134V64Z" fill="#1B1E1F"/>
<path d="M134 72H132V74H134V72Z" fill="#1B1E1F"/>
<path d="M134 68H132V70H134V68Z" fill="#1B1E1F"/>
<path d="M134 76H132V78H134V76Z" fill="#1B1E1F"/>
<path d="M136 36H134V38H136V36Z" fill="#1B1E1F"/>
<path d="M136 38H134V40H136V38Z" fill="#1B1E1F"/>
<path d="M136 42H134V44H136V42Z" fill="#1B1E1F"/>
<path d="M136 44H134V46H136V44Z" fill="#1B1E1F"/>
<path d="M136 46H134V48H136V46Z" fill="#1B1E1F"/>
<path d="M136 48H134V50H136V48Z" fill="#1B1E1F"/>
<path d="M136 50H134V52H136V50Z" fill="#1B1E1F"/>
<path d="M136 58H134V60H136V58Z" fill="#1B1E1F"/>
<path d="M136 62H134V64H136V62Z" fill="#1B1E1F"/>
<path d="M136 56H134V58H136V56Z" fill="#1B1E1F"/>
<path d="M136 60H134V62H136V60Z" fill="#1B1E1F"/>
<path d="M136 66H134V68H136V66Z" fill="#1B1E1F"/>
<path d="M136 74H134V76H136V74Z" fill="#1B1E1F"/>
<path d="M136 64H134V66H136V64Z" fill="#1B1E1F"/>
<path d="M138 36H136V38H138V36Z" fill="#1B1E1F"/>
<path d="M138 38H136V40H138V38Z" fill="#1B1E1F"/>
<path d="M138 48H136V50H138V48Z" fill="#1B1E1F"/>
<path d="M138 54H136V56H138V54Z" fill="#1B1E1F"/>
<path d="M138 70H136V72H138V70Z" fill="#1B1E1F"/>
<path d="M138 64H136V66H138V64Z" fill="#1B1E1F"/>
<path d="M138 72H136V74H138V72Z" fill="#1B1E1F"/>
<path d="M138 76H136V78H138V76Z" fill="#1B1E1F"/>
<path d="M140 36H138V38H140V36Z" fill="#1B1E1F"/>
<path d="M140 38H138V40H140V38Z" fill="#1B1E1F"/>
<path d="M140 44H138V46H140V44Z" fill="#1B1E1F"/>
<path d="M140 48H138V50H140V48Z" fill="#1B1E1F"/>
<path d="M140 52H138V54H140V52Z" fill="#1B1E1F"/>
<path d="M140 62H138V64H140V62Z" fill="#1B1E1F"/>
<path d="M140 70H138V72H140V70Z" fill="#1B1E1F"/>
<path d="M140 66H138V68H140V66Z" fill="#1B1E1F"/>
<path d="M140 72H138V74H140V72Z" fill="#1B1E1F"/>
<path d="M140 68H138V70H140V68Z" fill="#1B1E1F"/>
<path d="M142 38H140V40H142V38Z" fill="#1B1E1F"/>
<path d="M142 40H140V42H142V40Z" fill="#1B1E1F"/>
<path d="M142 46H140V48H142V46Z" fill="#1B1E1F"/>
<path d="M142 48H140V50H142V48Z" fill="#1B1E1F"/>
<path d="M142 54H140V56H142V54Z" fill="#1B1E1F"/>
<path d="M142 62H140V64H142V62Z" fill="#1B1E1F"/>
<path d="M142 56H140V58H142V56Z" fill="#1B1E1F"/>
<path d="M142 60H140V62H142V60Z" fill="#1B1E1F"/>
<path d="M142 66H140V68H142V66Z" fill="#1B1E1F"/>
<path d="M142 64H140V66H142V64Z" fill="#1B1E1F"/>
<path d="M142 72H140V74H142V72Z" fill="#1B1E1F"/>
<path d="M142 68H140V70H142V68Z" fill="#1B1E1F"/>
<path d="M142 76H140V78H142V76Z" fill="#1B1E1F"/>
<path d="M106 32H104V34H106V32Z" fill="#1B1E1F"/>
<path d="M106 24H104V26H106V24Z" fill="#1B1E1F"/>
<path d="M106 36H104V38H106V36Z" fill="#1B1E1F"/>
<path d="M106 40H104V42H106V40Z" fill="#1B1E1F"/>
<path d="M106 62H104V64H106V62Z" fill="#1B1E1F"/>
<path d="M106 74H104V76H106V74Z" fill="#1B1E1F"/>
<path d="M106 64H104V66H106V64Z" fill="#1B1E1F"/>
<path d="M106 68H104V70H106V68Z" fill="#1B1E1F"/>
<path d="M106 76H104V78H106V76Z" fill="#1B1E1F"/>
<path d="M104 30H102V32H104V30Z" fill="#1B1E1F"/>
<path d="M104 34H102V36H104V34Z" fill="#1B1E1F"/>
<path d="M104 26H102V28H104V26Z" fill="#1B1E1F"/>
<path d="M104 28H102V30H104V28Z" fill="#1B1E1F"/>
<path d="M104 36H102V38H104V36Z" fill="#1B1E1F"/>
<path d="M104 38H102V40H104V38Z" fill="#1B1E1F"/>
<path d="M104 62H102V64H104V62Z" fill="#1B1E1F"/>
<path d="M104 70H102V72H104V70Z" fill="#1B1E1F"/>
<path d="M104 56H102V58H104V56Z" fill="#1B1E1F"/>
<path d="M104 60H102V62H104V60Z" fill="#1B1E1F"/>
<path d="M104 66H102V68H104V66Z" fill="#1B1E1F"/>
<path d="M104 68H102V70H104V68Z" fill="#1B1E1F"/>
<path d="M102 30H100V32H102V30Z" fill="#1B1E1F"/>
<path d="M102 32H100V34H102V32Z" fill="#1B1E1F"/>
<path d="M102 26H100V28H102V26Z" fill="#1B1E1F"/>
<path d="M102 28H100V30H102V28Z" fill="#1B1E1F"/>
<path d="M102 22H100V24H102V22Z" fill="#1B1E1F"/>
<path d="M102 24H100V26H102V24Z" fill="#1B1E1F"/>
<path d="M102 36H100V38H102V36Z" fill="#1B1E1F"/>
<path d="M102 58H100V60H102V58Z" fill="#1B1E1F"/>
<path d="M102 62H100V64H102V62Z" fill="#1B1E1F"/>
<path d="M102 56H100V58H102V56Z" fill="#1B1E1F"/>
<path d="M102 66H100V68H102V66Z" fill="#1B1E1F"/>
<path d="M102 64H100V66H102V64Z" fill="#1B1E1F"/>
<path d="M102 72H100V74H102V72Z" fill="#1B1E1F"/>
<path d="M94 24H88V30H94V24Z" fill="#1B1E1F"/>
<path d="M138 24H132V30H138V24Z" fill="#1B1E1F"/>
<path d="M94 68H88V74H94V68Z" fill="#1B1E1F"/>
<path d="M116.038 49.514C116.316 49.514 116.54 49.29 116.54 49.012C116.54 48.732 116.316 48.508 116.038 48.508H114.64V47.61H116.038C116.316 47.61 116.54 47.386 116.54 47.106C116.54 46.83 116.316 46.606 116.038 46.606H114.134C113.858 46.606 113.632 46.83 113.632 47.106V50.914C113.63 51.192 113.854 51.418 114.13 51.42C114.13 51.42 114.132 51.42 114.134 51.42H116.038C116.316 51.42 116.54 51.196 116.54 50.918C116.54 50.64 116.316 50.414 116.038 50.414H114.64V49.514H116.038Z" fill="#00B900"/>
<path d="M112.456 46.606C112.178 46.606 111.954 46.83 111.954 47.106V49.462L110 46.804C109.906 46.68 109.756 46.604 109.598 46.604C109.546 46.604 109.494 46.612 109.444 46.63C109.236 46.698 109.1 46.89 109.1 47.104V50.912C109.1 51.19 109.324 51.414 109.602 51.414C109.88 51.414 110.104 51.19 110.104 50.912V48.56L112.054 51.214C112.148 51.34 112.296 51.416 112.452 51.418C112.506 51.418 112.56 51.41 112.612 51.392C112.818 51.324 112.956 51.13 112.954 50.916V47.104C112.958 46.83 112.732 46.606 112.456 46.606Z" fill="#00B900"/>
<path d="M107.874 46.606C107.596 46.606 107.372 46.83 107.372 47.106V50.914C107.362 51.192 107.578 51.424 107.856 51.436C108.134 51.446 108.366 51.228 108.376 50.952C108.376 50.938 108.376 50.928 108.376 50.914V47.106C108.376 46.83 108.15 46.606 107.874 46.606Z" fill="#00B900"/>
<path d="M106.408 50.41H105.006V47.106C105.016 46.83 104.798 46.598 104.522 46.586C104.246 46.574 104.012 46.794 104.002 47.068C104.002 47.082 104.002 47.094 104.002 47.106V50.914C104 51.192 104.222 51.418 104.5 51.42C104.502 51.42 104.502 51.42 104.504 51.42H106.408C106.684 51.42 106.91 51.196 106.91 50.918C106.91 50.64 106.684 50.414 106.408 50.414V50.41Z" fill="#00B900"/>
<path d="M119.584 51.396C118.25 51.396 117.168 50.316 117.168 48.982C117.168 48.98 117.168 48.98 117.168 48.98C117.168 47.646 118.25 46.564 119.584 46.564C120.918 46.564 122 47.646 122 48.98V49.316C122 49.82 121.592 50.226 121.088 50.226C120.584 50.226 120.174 49.82 120.174 49.316V48.98C120.174 48.656 119.912 48.392 119.586 48.392C119.262 48.392 118.998 48.656 118.998 48.98C119 49.304 119.264 49.566 119.586 49.568C119.626 49.57 119.668 49.564 119.706 49.558C119.882 49.518 120.056 49.634 120.092 49.812C120.128 49.988 120.014 50.164 119.838 50.198C119.754 50.216 119.672 50.224 119.588 50.224C118.9 50.226 118.342 49.668 118.338 48.98C118.338 48.292 118.894 47.734 119.584 47.734C119.584 47.734 119.584 47.734 119.586 47.734C120.274 47.734 120.832 48.292 120.832 48.98V49.316C120.832 49.456 120.948 49.572 121.09 49.572C121.232 49.57 121.346 49.456 121.346 49.316V48.98C121.344 48.012 120.558 47.222 119.586 47.22C118.614 47.222 117.828 48.012 117.826 48.98C117.828 49.95 118.616 50.738 119.586 50.742C119.816 50.742 120.046 50.7 120.258 50.612C120.426 50.542 120.618 50.622 120.688 50.79C120.756 50.956 120.678 51.15 120.51 51.218C120.214 51.338 119.902 51.398 119.584 51.396Z" fill="#00B900"/>
<path d="M95.9 20H88C85.792 20 84 21.79 84 24V31.898V34H86.1H95.9H98V31.898V22.1V20H95.9ZM96 32H86V24C86 22.894 86.894 22 88 22H96V32Z" fill="#1B1E1F"/>
<path d="M84 66.102V74C84 76.21 85.79 78 88 78H95.898H98V75.9V66.102V64H95.9H86.1H84V66.102ZM96 66V76H88C86.894 76 86 75.106 86 74V66H96Z" fill="#1B1E1F"/>
<path d="M142 31.898V24C142 21.79 140.21 20 138 20H130.1H128V22.1V31.898V34H130.1H139.9H142V31.898ZM130 32V22H138C139.106 22 140 22.894 140 24V32H130Z" fill="#1B1E1F"/>
<path d="M46.5859 96.594C40.9419 96.594 36.3079 96.264 34.7539 95.604C34.3939 95.452 34.1299 95.138 34.0459 94.756C33.1999 90.994 32.3999 81.608 31.7579 71.23C31.7059 71.166 31.6359 71.12 31.5979 71.042C31.5959 71.038 31.5919 71.036 31.5899 71.032C31.5559 70.962 31.5359 70.89 31.5059 70.82H31.5079C31.3599 70.484 31.2419 70.14 31.1479 69.792C31.1479 69.79 31.1479 69.788 31.1459 69.786C31.0539 69.444 30.9879 69.096 30.9399 68.746C30.9399 68.738 30.9379 68.732 30.9379 68.724C30.7599 67.342 30.9119 65.916 31.1659 64.526C31.2059 64.314 31.2479 64.102 31.2919 63.892C31.3999 63.362 31.5159 62.838 31.6339 62.328C31.9439 60.972 32.2259 59.694 32.2779 58.564C32.2779 58.568 32.2779 58.572 32.2779 58.576C32.2799 58.528 32.2939 58.468 32.2959 58.42C32.2959 57.852 32.2619 57.33 32.1979 56.856C32.1979 56.868 32.1999 56.878 32.1999 56.89C32.1519 56.528 32.0839 56.202 31.9999 55.904C31.9919 55.874 31.9819 55.846 31.9739 55.818C31.8079 55.256 31.5759 54.83 31.2959 54.558C31.2679 54.53 31.2379 54.506 31.2099 54.482C31.0679 54.364 30.9179 54.274 30.7519 54.238C30.6159 54.21 30.4679 54.206 30.3139 54.228C29.5319 54.332 28.5359 55.044 27.6499 56.296C27.2979 56.798 26.9619 57.386 26.6659 58.056C24.2659 62.9 24.0899 66.772 23.8619 71.676L23.8079 72.826L23.7899 73.208C23.6939 74.332 23.7819 75.548 23.8739 76.842C24.0939 79.948 24.3439 83.47 21.7979 85.646C20.8399 86.466 19.6699 87.75 18.4299 89.108C16.4159 91.318 14.3339 93.582 12.3879 94.798L27.1699 111.856C27.6199 111.266 28.1759 110.428 28.7619 109.528C30.6579 106.632 32.8039 103.348 35.1259 102.45C36.4599 101.994 38.5759 101.914 40.8139 101.83C42.9039 101.754 45.2719 101.664 46.4019 101.25C48.2839 100.556 51.1339 99.116 53.3659 96.444C51.0359 96.544 48.7359 96.594 46.5859 96.594Z" fill="#F7D1C5"/>
<path d="M40.7421 45.064C40.7001 44.586 40.6781 44.134 40.6561 43.692C40.6281 43.158 40.6001 42.642 40.5481 42.126C41.0901 42.062 41.6461 41.952 42.2441 41.74C42.8741 41.518 43.2041 40.828 42.9821 40.198C42.7581 39.568 42.0681 39.24 41.4401 39.462C40.6121 39.754 39.9501 39.822 39.3561 39.712C39.2921 39.7 39.2281 39.704 39.1641 39.702C38.5381 39.572 37.9041 39.962 37.7541 40.598C37.6621 40.988 37.7841 41.364 38.0221 41.646C38.1421 42.326 38.2001 43.024 38.2421 43.816C38.2661 44.288 38.2921 44.766 38.3361 45.266C38.3901 45.898 38.9181 46.374 39.5401 46.374C39.5741 46.374 39.6121 46.374 39.6441 46.366C40.3081 46.316 40.8001 45.724 40.7421 45.064Z" fill="#1B1E1F"/>
<path d="M64.212 40.69C64.278 41.55 64.38 42.464 64.588 43.392C64.712 43.954 65.212 44.34 65.766 44.34C65.85 44.34 65.938 44.33 66.028 44.31C66.68 44.17 67.09 43.524 66.946 42.87C66.696 41.742 66.622 40.606 66.556 39.508C66.518 38.918 65.926 38.428 65.34 38.368C64.316 38.264 63.16 38.142 62.258 38.282C61.6 38.384 61.144 38.996 61.246 39.66C61.344 40.316 61.942 40.78 62.624 40.67C63.01 40.616 63.592 40.636 64.212 40.69Z" fill="#1B1E1F"/>
<path d="M66.9481 67.168C66.2881 67.266 65.8341 67.882 65.9361 68.544C65.9941 68.934 65.9701 69.508 65.9181 70.13C65.0601 70.196 64.1461 70.296 63.2161 70.502C62.5641 70.644 62.1541 71.292 62.2981 71.942C62.4221 72.508 62.9201 72.892 63.4761 72.892C63.5621 72.892 63.6501 72.882 63.7361 72.862C64.8681 72.614 66.0021 72.542 67.1001 72.472C67.6901 72.436 68.1801 71.848 68.2381 71.26C68.3461 70.238 68.4621 69.078 68.3261 68.178C68.2261 67.52 67.6141 67.058 66.9481 67.168Z" fill="#1B1E1F"/>
<path d="M44.508 70.628C44.11 70.688 43.526 70.664 42.916 70.616C42.852 69.754 42.752 68.84 42.544 67.908C42.4 67.256 41.746 66.848 41.104 66.99C40.452 67.138 40.042 67.782 40.186 68.434C40.436 69.562 40.506 70.748 40.566 71.792C40.6 72.382 41.14 72.87 41.732 72.932C42.434 73.004 43.2 73.082 43.906 73.082C44.244 73.082 44.568 73.064 44.866 73.02C45.526 72.922 45.982 72.306 45.884 71.646C45.784 70.98 45.166 70.534 44.508 70.628Z" fill="#1B1E1F"/>
<path d="M75.9739 66.164C75.9099 60.966 75.8399 55.592 75.5139 48.012C75.4079 45.584 75.3159 43.236 75.2279 40.998C74.9919 35.01 74.7959 30.554 74.5459 27.248C74.5459 27.244 74.5459 27.242 74.5459 27.238C74.5459 27.236 74.5439 27.232 74.5439 27.23C74.1359 21.86 73.5859 19.534 72.4939 18.682C70.9579 17.48 58.8879 18.136 51.8299 18.636C43.1359 19.25 32.4559 20.316 30.9319 21.908C30.5579 22.296 29.5959 23.324 30.7759 51.838C30.6279 51.826 30.4819 51.794 30.3319 51.798C28.1359 51.884 25.8719 53.89 24.4799 57.03C24.3759 57.24 24.2979 57.442 24.1999 57.652C21.8859 62.616 21.6719 66.782 21.4519 71.568L21.4439 71.758L21.3819 73.046C21.3819 73.056 21.3819 73.068 21.3819 73.078V73.088C21.3819 73.088 21.3819 73.088 21.3819 73.09C21.2799 74.352 21.3759 75.708 21.4679 77.018C21.6639 79.8 21.8499 82.434 20.2319 83.816C19.1599 84.734 17.9399 86.07 16.6479 87.486C14.7839 89.528 12.6699 91.85 10.9799 92.852C10.4079 93.194 10.2179 93.936 10.5599 94.512C10.9039 95.084 11.6439 95.27 12.2179 94.93C12.2759 94.896 12.3359 94.842 12.3919 94.806C14.3399 93.592 16.4199 91.326 18.4339 89.116C19.6739 87.758 20.8439 86.474 21.8019 85.654C24.3479 83.478 24.0979 79.956 23.8779 76.85C23.7879 75.556 23.6979 74.338 23.7939 73.216L23.8119 72.834L23.8659 71.684C24.0939 66.78 24.2699 62.908 26.6699 58.064C26.9659 57.394 27.3019 56.806 27.6539 56.304C28.5399 55.052 29.5359 54.34 30.3179 54.236C30.4739 54.216 30.6199 54.218 30.7559 54.246C30.9219 54.282 31.0739 54.372 31.2139 54.49C31.2439 54.514 31.2719 54.538 31.2999 54.566C31.5819 54.838 31.8119 55.266 31.9779 55.826C31.9859 55.856 31.9959 55.884 32.0039 55.912C32.0879 56.208 32.1559 56.536 32.2039 56.898C32.2039 56.886 32.2039 56.876 32.2019 56.864C32.2679 57.336 32.3019 57.86 32.2999 58.428C32.2979 58.476 32.2839 58.536 32.2819 58.584C32.2819 58.58 32.2819 58.576 32.2819 58.572C32.2299 59.702 31.9479 60.98 31.6379 62.336C31.5199 62.846 31.4039 63.37 31.2959 63.9C31.2839 63.958 31.2719 64.02 31.2599 64.078C31.2279 64.232 31.1979 64.384 31.1679 64.538C30.9139 65.924 30.7619 67.346 30.9399 68.728C30.9399 68.738 30.9419 68.75 30.9439 68.762C30.9899 69.108 31.0559 69.452 31.1479 69.79C31.1479 69.792 31.1499 69.796 31.1499 69.798C31.1499 69.798 31.1499 69.798 31.1499 69.8C31.2439 70.148 31.3619 70.49 31.5099 70.828H31.5079C31.5399 70.898 31.5599 70.97 31.5919 71.04C31.5939 71.044 31.5979 71.046 31.5999 71.05C31.6379 71.128 31.7079 71.174 31.7599 71.238C32.4019 81.614 33.2019 91 34.0479 94.764C34.1319 95.146 34.3959 95.462 34.7559 95.612C36.3079 96.272 40.9419 96.602 46.5879 96.602C48.7379 96.602 51.0379 96.552 53.3679 96.454C51.1359 99.126 48.2859 100.566 46.4039 101.26C45.2739 101.674 42.9039 101.764 40.8159 101.84C38.5779 101.924 36.4619 102.004 35.1279 102.46C32.8079 103.358 30.6599 106.642 28.7639 109.538C28.1799 110.432 27.6299 111.264 27.1799 111.852C27.1779 111.856 27.1739 111.862 27.1699 111.866C27.1259 111.922 27.0779 111.99 27.0359 112.044C26.6199 112.57 26.7039 113.328 27.2259 113.742C27.4479 113.916 27.7119 114 27.9779 114C28.3339 114 28.6859 113.848 28.9259 113.546C29.4659 112.868 30.0779 111.936 30.7839 110.854C32.3119 108.518 34.4039 105.324 35.9519 104.722C36.9039 104.398 38.9359 104.322 40.9039 104.25C43.3939 104.158 45.7439 104.07 47.2359 103.524C51.2039 102.066 54.3899 99.514 56.4519 96.292C64.4879 95.812 72.3099 94.76 75.2439 93.12C76.2439 92.56 76.8119 91.874 76.9319 91.078C76.9439 90.992 76.9499 90.9 76.9419 90.814C76.1479 79.92 76.0619 73.24 75.9739 66.164ZM32.8279 23.508C36.4499 21.844 67.1799 19.51 71.0339 20.64C71.4699 21.284 71.7879 23.37 72.0379 26.252C69.4499 26.486 66.8319 26.732 64.1679 26.986C53.7679 27.988 43.0319 29 32.6419 29.064C32.6439 26.274 32.7039 24.296 32.8279 23.508ZM33.7419 63.988C33.8239 63.612 33.9079 63.238 33.9919 62.864C34.3279 61.406 34.6719 59.896 34.7139 58.458C34.7259 55.654 34.0399 54.054 33.2399 53.118C32.9059 44.85 32.6959 37.056 32.6499 31.48C43.1479 31.416 53.9419 30.4 64.3979 29.394C67.0459 29.142 69.6459 28.894 72.2199 28.664C72.4639 32.3 72.6379 36.726 72.8079 41.094C72.8959 43.336 72.9879 45.684 73.0959 48.114C73.4239 55.656 73.4899 61.012 73.5539 66.196C73.6159 71.078 73.6799 75.804 73.9699 81.814C62.2399 83.432 49.5279 84.374 35.1499 84.682C34.6159 78.934 34.1339 71.594 33.7419 63.988ZM55.2899 88.498C56.0059 88.784 56.3939 89.198 56.4399 89.734C56.4879 90.318 56.1239 90.988 55.5719 91.328C55.0759 91.626 54.5599 91.608 54.0279 91.278C54.0279 91.278 54.0279 91.278 54.0259 91.278C52.9059 90.584 52.8479 89.66 53.1359 89.078C53.3399 88.668 53.7679 88.318 54.4179 88.318C54.6739 88.316 54.9639 88.374 55.2899 88.498ZM36.2699 93.576C35.9659 92.012 35.6699 89.788 35.3879 87.096C41.4039 86.966 47.1159 86.716 52.6039 86.36C51.8699 86.748 51.2999 87.336 50.9699 88C50.1959 89.558 50.4239 91.89 52.7479 93.33C53.4219 93.754 54.1419 93.962 54.8559 93.962C55.5359 93.962 56.2079 93.77 56.8319 93.388C58.1659 92.572 58.9739 91.022 58.8479 89.532C58.7239 88.074 57.7579 86.88 56.1739 86.248C56.0499 86.2 55.9339 86.182 55.8139 86.144C62.2019 85.67 68.2699 85.036 74.0999 84.238C74.2119 86.24 74.3419 88.362 74.5119 90.708C72.3599 93.302 42.8619 95.442 36.2699 93.576Z" fill="#1B1E1F"/>
</svg>
