<?xml version="1.0" encoding="utf-8"?>
<!-- Generator: Adobe Illustrator 16.0.0, SVG Export Plug-In . SVG Version: 6.00 Build 0)  -->
<!DOCTYPE svg PUBLIC "-//W3C//DTD SVG 1.1//EN" "http://www.w3.org/Graphics/SVG/1.1/DTD/svg11.dtd">
<svg version="1.1" id="Layer_1" xmlns="http://www.w3.org/2000/svg" xmlns:xlink="http://www.w3.org/1999/xlink" x="0px" y="0px"
	 width="2837px" height="663px" viewBox="0 0 2837 663" enable-background="new 0 0 2837 663" xml:space="preserve">
<g>
	<circle fill-rule="evenodd" clip-rule="evenodd" fill="#8CD4E0" cx="563.341" cy="101.808" r="101.808"/>
	<circle fill-rule="evenodd" clip-rule="evenodd" fill="#8CD4E0" cx="154.494" cy="101.808" r="101.808"/>
	<circle fill-rule="evenodd" clip-rule="evenodd" fill="#8CD4E0" cx="154.494" cy="512.65" r="101.808"/>
	<circle fill-rule="evenodd" clip-rule="evenodd" fill="#8CD4E0" cx="565.34" cy="512.65" r="101.808"/>
	<g>
		<path fill="#231F20" d="M2028.877,183.411c7.509,3.764,15.012,7.219,22.456,10.351c20.98,10.323,52.692,20.972,95.188,31.86
			c7.844,1.861,11.963,6.689,12.281,14.603c-0.615,11.513-6.072,17.563-16.404,18.192c-3.96,0-12.739-1.782-26.41-5.444
			c-30.318-9.009-59.36-20.434-87.111-34.17V183.411L2028.877,183.411z M2028.877,533.513v-32.337h18.751h27.41V424.64
			c0-7.543-3.659-11.355-10.966-11.355h-16.444h-14.15l-4.601,7.952v-38.479h49.807c20.899,0,31.393,9.087,31.393,27.361v91.057
			h28.681c10.952,0,16.382,5.288,16.382,15.936c0,10.949-5.43,16.401-16.382,16.401H2028.877L2028.877,533.513z M2028.877,356.812
			v-26.915h22.914c7.004,0,10.488-5.035,10.488-15.066v-12.729c0-8.174-3.484-12.294-10.488-12.294h-22.914v-27.749h39.314
			c17.955,0,26.896,8.093,26.896,24.187v45.535c0,16.71-8.941,25.031-26.896,25.031H2028.877z M1989.047,160.599
			c13.356,8.58,26.654,16.176,39.83,22.812v35.392l-0.795-0.396c-0.535,7.523-4.798,11.336-12.741,11.336h-26.294v-25.946h11.308
			c-3.781-2.082-7.567-4.181-11.308-6.37V160.599L1989.047,160.599z M2028.877,262.059v27.749h-39.83v-27.749H2028.877
			L2028.877,262.059z M2028.877,329.896v26.915h-39.83v-26.915H2028.877L2028.877,329.896z M2028.877,382.758v38.479l-39.83,69.012
			v-66.026l6.33-10.938h-6.33v-30.526H2028.877L2028.877,382.758z M2028.877,501.176v32.337h-39.83v-32.337h19.069H2028.877z
			 M1938.107,124.244c1.831,1.002,3.763,2.306,5.754,3.929c15.168,12.014,30.238,22.833,45.186,32.426v36.828
			c-14.871-8.69-29.441-18.266-43.792-28.687c-2.688-2.041-5.097-3.702-7.147-5.026V124.244L1938.107,124.244z M1989.047,229.743
			h-50.939v-25.946h50.939V229.743L1989.047,229.743z M1989.047,262.059v27.749h-50.939v-27.749H1989.047L1989.047,262.059z
			 M1989.047,329.896v26.915h-50.939v-26.915H1989.047L1989.047,329.896z M1989.047,382.758v30.526h-13.716h-37.224v-30.526
			H1989.047L1989.047,382.758z M1989.047,424.222v66.026l-6.312,10.928h6.312v32.337h-50.939v-32.337h6.533L1989.047,424.222z
			 M1929.786,121.793c2.63,0,5.378,0.846,8.321,2.451v39.47c-3.82-2.437-6.568-3.682-8.321-3.682c-3.345,0-7.003,1.723-10.945,5.058
			c-10.87,9.085-21.439,17.308-31.69,24.613v-38.419c9.554-7.198,19.071-14.92,28.485-23.111
			C1920.234,123.983,1924.913,121.793,1929.786,121.793L1929.786,121.793z M1938.107,229.743h-50.957v-25.946h50.957V229.743
			L1938.107,229.743z M1938.107,262.059v27.749h-50.957v-27.749H1938.107L1938.107,262.059z M1938.107,329.896v26.915h-50.957
			v-26.915H1938.107L1938.107,329.896z M1938.107,382.758v30.526h-6.527l-44.43,76.955v-66.018l6.312-10.938h-6.312v-30.526
			H1938.107L1938.107,382.758z M1938.107,501.176v32.337h-50.957v-32.337h16.702H1938.107z M1887.15,229.743h-30.258
			c-2.963,0-5.454-0.479-7.446-1.455v-51.284c12.665-7.724,25.243-16.307,37.704-25.72v38.419
			c-7.188,5.143-14.214,9.823-21.084,14.094h21.084V229.743L1887.15,229.743z M1887.15,262.059v27.749h-37.704v-27.749H1887.15
			L1887.15,262.059z M1887.15,329.896v26.915h-37.704v-26.915H1887.15L1887.15,329.896z M1887.15,382.758v30.526h-15.645h-22.06
			v-30.526H1887.15L1887.15,382.758z M1887.15,424.222v66.018l-6.311,10.937h6.311v32.337h-37.704v-44.002L1887.15,424.222z
			 M1849.446,228.288c-3.838-1.91-5.749-5.691-5.749-11.295c-3.583,2.089-7.229,4.129-10.889,5.911
			c-28.825,14.304-55.88,25.487-81.059,33.73c-8.538,3.632-14.906,5.424-19.111,5.424c-10.331-0.616-15.62-6.678-15.923-18.173
			c0-7.613,4.024-12.353,12.264-14.143c46.161-16.084,80.596-30.388,103.349-42.818c5.73-3.145,11.428-6.449,17.118-9.921V228.288
			L1849.446,228.288z M1849.446,262.059h-45.781c-17.934,0-26.893,8.093-26.893,24.187v45.535c0,16.71,8.959,25.031,26.893,25.031
			h45.781v-26.915h-28.919c-7.624,0-11.428-5.035-11.428-15.066v-12.729c0-8.174,3.804-12.294,11.428-12.294h28.919V262.059
			L1849.446,262.059z M1849.446,382.758v30.526h-1.712h-32.723c-6.371,0-9.553,3.812-9.553,11.355v76.536h37.263l6.725-11.665
			v44.002h-107.249c-11.267,0-16.858-5.452-16.858-16.401c0-10.647,5.592-15.936,16.858-15.936h28.681v-91.057
			c0-18.274,9.876-27.361,29.604-27.361H1849.446z"/>
		<path fill="#231F20" d="M1115.726,195.155h54.163c17.02,0,25.479,10.192,25.479,30.534c0,35.832-3.588,69.173-10.888,100.188
			c-7.606,38.837-19.89,74.347-36.908,106.535c-0.595,1.155-1.152,2.239-1.79,3.183c7.247,6.37,13.536,11.965,18.652,16.852
			c19.425,15.786,29.139,28.216,29.139,37.304c-0.318,5.204-1.69,9.097-4.122,11.812c-2.706,2.798-6.348,4.441-10.866,5.058
			c-7.601,0-14.61-3.035-20.98-9.097c-11.508-10.958-22.316-21.289-32.327-31.005c-3.084,4.264-6.289,8.462-9.553,12.582v-70.198
			l4.117,3.464c15.15-27.36,26.417-59.071,33.64-95.208c5.836-29.363,8.7-55.638,8.7-78.706c0-7-2.329-10.502-6.824-10.502h-39.633
			V195.155L1115.726,195.155z M1428.502,322.225c10.948,0,16.405,5.434,16.405,16.382c0,10.967-5.457,16.411-16.405,16.411h-48.273
			c8.879,28.506,13.222,57.181,13.222,86.024c0,17.943-4.661,35.818-14.058,53.765c-7.62,15.774-18.275,26.964-31.95,33.651
			c-11.801,7.305-26.114,10.958-42.734,10.958c-22.456,0-48.031-7.465-76.536-22.305c-10.569-3.645-16.085-9.564-16.405-17.805
			c0.32-12.74,5.836-19.578,16.405-20.424c39.771,16.072,64.493,24.085,74.208,24.085c8.541,0,16.544-2.259,24.164-6.826
			c9.098-4.518,16.542-12.124,22.292-22.783c5.458-9.716,8.165-20.433,8.165-32.316c0-30.316-3.328-56.115-9.935-77.415
			c-0.954-3.331-2.028-6.218-3.201-8.609h-125.25c-10.905,0-16.423-5.444-16.423-16.411c0-10.948,5.518-16.382,16.423-16.382
			h108.387c-3.664-4.897-7.142-9.416-10.487-13.687c-11.805-14.221-25.003-25.796-39.632-34.575
			c-4.501-3.345-6.83-6.689-6.83-10.022c0.617-11.277,7.306-17.338,20.046-18.264c2.707,0,5.912,1.234,9.554,3.642
			c1.556-1.165,3.188-2.407,5.057-3.642c15.465-8.173,27.111-15.479,35.056-21.849c11.186-8.469,21.057-17.636,29.6-27.348
			c6.369-7.228,9.552-12.132,9.552-14.532c0-2.398-1.853-3.652-5.516-3.652h-147.022c-9.71,0-14.611-4.826-14.611-14.532
			c0-9.404,4.901-14.143,14.611-14.143h174.83c15.789,0,23.711,5.911,23.711,17.798c0,6.598-2.949,14.221-8.7,22.761
			c-8.779,13.289-21.835,27.898-39.156,43.684c-15.784,14.29-32.346,26.403-49.581,36.437c6.051,6.062,11.801,12.442,17.235,19.119
			c8.857,10.33,16.265,21.3,22.317,32.806H1428.502z M1041.971,195.155h31.851c0.935-16.7,1.413-35.032,1.413-55.088
			c0-10.969,5.434-16.404,16.304-16.404c10.651,0,16.022,5.436,16.022,16.404c0,20.056-0.458,38.388-1.411,55.088h9.576v32.796
			h-12.283c-1.556,14.849-3.506,28.216-5.916,40.091c-4.896,23.009-13.216,51.137-25.099,84.251
			c-2.09,4.815-3.188,8.938-3.188,12.271c0,2.407,3.507,6.997,10.511,13.676c13.218,11.295,25.144,21.51,35.975,30.664v70.198
			c-17.04,21.378-36.607,40.718-58.743,58.056c-5.157,2.718-9.576,4.05-13.239,4.05c-12.121,0-18.172-6.062-18.172-18.193
			c0-3.653,1.79-7.465,5.43-11.417c28.845-22.464,51.916-45.384,69.254-68.693c-18.808-17.955-35.828-33.423-50.975-46.481
			c-8.245-8.241-12.363-18.801-12.363-31.858c0-2.16,1.093-6.21,3.184-12.271c12.74-29.152,21.301-56.344,25.499-81.526
			c2.49-12.43,4.581-26.73,6.369-42.815h-29.999c-10.969,0-16.399-5.436-16.399-16.393
			C1025.572,200.609,1031.002,195.155,1041.971,195.155z"/>
		<path fill="#231F20" d="M2758.88,421.783h55.062c15.243,0,22.909,7.244,22.909,21.559v64.951c0,15.833-7.705,23.777-22.909,23.777
			h-55.062v-30.534h37.085c5.673,0,8.519-3.753,8.519-11.198v-28.982c0-6.28-2.885-9.426-8.519-9.426h-37.085V421.783
			L2758.88,421.783z M2758.88,261.371v-30.524h37.085c5.673,0,8.519-3.764,8.519-11.208v-30.803c0-6.29-2.885-9.437-8.519-9.437
			h-37.085v-30.136h55.062c15.243,0,22.909,7.235,22.909,21.55v66.78c0,15.836-7.705,23.777-22.909,23.777H2758.88z
			 M2703.842,421.783h55.038v30.146h-37.083c-5.654,0-8.518,3.186-8.518,9.426v28.982c0,7.404,2.822,11.198,8.518,11.198h37.083
			v30.534h-55.038c-15.227,0-22.931-7.903-22.931-23.777v-64.951C2680.911,428.987,2688.576,421.783,2703.842,421.783
			L2703.842,421.783z M2758.88,149.264v30.136h-37.083c-5.654,0-8.518,3.196-8.518,9.437v30.803c0,7.406,2.822,11.208,8.518,11.208
			h37.083v30.524h-55.038c-15.227,0-22.931-7.901-22.931-23.777v-66.78c0-14.355,7.665-21.55,22.931-21.55H2758.88L2758.88,149.264z
			 M2538.663,532.07v-30.534h37.088c5.691,0,8.514-3.753,8.514-11.198v-28.982c0-6.28-2.863-9.426-8.514-9.426h-37.088v-30.146
			h55.061c15.25,0,22.933,7.244,22.933,21.559v64.951c0,15.833-7.724,23.777-22.933,23.777H2538.663L2538.663,532.07z
			 M2538.663,261.371v-30.524h37.088c5.691,0,8.514-3.764,8.514-11.208v-30.803c0-6.29-2.863-9.437-8.514-9.437h-37.088v-30.136
			h55.061c15.25,0,22.933,7.235,22.933,21.55v66.78c0,15.836-7.724,23.777-22.933,23.777H2538.663L2538.663,261.371z
			 M2577.738,304.319c-6.869-5.883-7.625-16.223-1.732-23.071c5.896-6.838,16.203-7.614,23.05-1.722l47.733,41.087l47.676-41.059
			c6.789-5.88,17.1-5.133,22.995,1.673c5.889,6.798,5.15,17.119-1.655,22.99l-44.011,37.902l44.011,37.88
			c6.847,5.893,7.624,16.215,1.731,23.062c-5.896,6.847-16.224,7.615-23.071,1.722l-47.734-41.084l-47.675,41.043
			c-6.806,5.902-17.119,5.157-23.009-1.649c-5.871-6.811-5.133-17.119,1.674-23.003l44.01-37.9L2577.738,304.319z M2538.663,149.264
			v30.136h-37.085c-5.633,0-8.518,3.196-8.518,9.437v30.803c0,7.406,2.846,11.208,8.518,11.208h37.085v30.524h-55.04
			c-15.227,0-22.931-7.901-22.931-23.777v-66.78c0-14.355,7.665-21.55,22.931-21.55H2538.663L2538.663,149.264z M2538.663,421.783
			v30.146h-37.085c-5.633,0-8.518,3.186-8.518,9.426v28.982c0,7.404,2.846,11.198,8.518,11.198h37.085v30.534h-55.04
			c-15.227,0-22.931-7.903-22.931-23.777v-64.951c0-14.354,7.665-21.559,22.931-21.559H2538.663z"/>
	</g>
	<g>
		<path fill="#231F20" d="M116.234,48.447c48.316,0,87.624,39.308,87.624,87.624c0,48.317-39.308,87.627-87.624,87.627
			c-48.317,0-87.625-39.31-87.625-87.627C28.608,87.755,67.917,48.447,116.234,48.447 M116.234,19.987
			c-64.112,0-116.085,51.972-116.085,116.084c0,64.111,51.973,116.087,116.085,116.087c64.112,0,116.084-51.976,116.084-116.087
			C232.318,71.959,180.346,19.987,116.234,19.987L116.234,19.987z"/>
	</g>
	<g>
		<path fill="#231F20" d="M527.08,28.46c48.316,0,87.624,39.309,87.624,87.624c0,48.317-39.308,87.627-87.624,87.627
			c-48.317,0-87.625-39.31-87.625-87.627C439.454,67.769,478.763,28.46,527.08,28.46 M527.08,0
			c-64.112,0-116.085,51.973-116.085,116.084s51.973,116.087,116.085,116.087c64.112,0,116.083-51.976,116.083-116.087
			S591.191,0,527.08,0L527.08,0z"/>
	</g>
	<g>
		<path fill="#231F20" d="M116.234,459.289c48.316,0,87.624,39.308,87.624,87.624c0,48.317-39.308,87.627-87.624,87.627
			c-48.317,0-87.625-39.31-87.625-87.627C28.608,498.597,67.917,459.289,116.234,459.289 M116.234,430.829
			c-64.112,0-116.085,51.973-116.085,116.084S52.122,663,116.234,663c64.112,0,116.084-51.976,116.084-116.087
			S180.346,430.829,116.234,430.829L116.234,430.829z"/>
	</g>
	<g>
		<path fill="#231F20" d="M527.08,459.289c48.316,0,87.624,39.308,87.624,87.624c0,48.317-39.308,87.627-87.624,87.627
			c-48.317,0-87.625-39.31-87.625-87.627C439.454,498.597,478.763,459.289,527.08,459.289 M527.08,430.829
			c-64.112,0-116.085,51.973-116.085,116.084S462.967,663,527.08,663c64.112,0,116.083-51.976,116.083-116.087
			S591.191,430.829,527.08,430.829L527.08,430.829z"/>
	</g>
	<path fill="#231F20" d="M407.649,255.594v7.862c-0.638,2.251-1.831,4.379-3.601,6.15l-61.909,61.888l61.909,61.897
		c1.771,1.78,2.963,3.941,3.601,6.21v7.813c-0.638,2.25-1.831,4.39-3.601,6.171c-5.575,5.564-14.633,5.564-20.208,0l-61.907-61.895
		l-61.905,61.895c-5.575,5.574-14.61,5.574-20.184,0c-5.575-5.575-5.575-14.62,0-20.194l61.903-61.897l-61.903-61.888
		c-5.575-5.572-5.575-14.619,0-20.194c5.574-5.572,14.629-5.572,20.204,0l61.886,61.899l61.907-61.899
		c5.574-5.572,14.633-5.572,20.208,0C405.818,251.194,407.011,253.346,407.649,255.594L407.649,255.594z"/>
</g>
</svg>
