<?xml version="1.0" encoding="utf-8"?>
<!-- Generator: Adobe Illustrator 16.0.0, SVG Export Plug-In . SVG Version: 6.00 Build 0)  -->
<!DOCTYPE svg PUBLIC "-//W3C//DTD SVG 1.1//EN" "http://www.w3.org/Graphics/SVG/1.1/DTD/svg11.dtd">
<svg version="1.1" id="Layer_1" xmlns="http://www.w3.org/2000/svg" xmlns:xlink="http://www.w3.org/1999/xlink" x="0px" y="0px"
	 width="29px" height="29px" viewBox="0 0 29 29" enable-background="new 0 0 29 29" xml:space="preserve">
<rect x="11" y="2" width="1" height="1"/>
<rect x="11" width="1" height="1"/>
<rect x="11" y="8" width="1" height="1"/>
<rect y="12" width="1" height="1"/>
<rect x="2" y="12" width="1" height="1"/>
<rect x="5" y="12" width="1" height="1"/>
<rect x="5" y="11" width="1" height="1"/>
<rect x="5" y="10" width="1" height="1"/>
<rect x="5" y="8" width="1" height="1"/>
<rect x="6" y="12" width="1" height="1"/>
<rect x="6" y="10" width="1" height="1"/>
<rect x="6" y="8" width="1" height="1"/>
<rect x="7" y="12" width="1" height="1"/>
<rect x="2" y="13" width="1" height="1"/>
<rect x="2" y="14" width="1" height="1"/>
<rect x="3" y="13" width="1" height="1"/>
<rect x="4" y="12" width="1" height="1"/>
<rect x="4" y="11" width="1" height="1"/>
<rect x="7" y="14" width="1" height="1"/>
<rect x="11" y="10" width="1" height="1"/>
<rect x="4" y="15" width="1" height="1"/>
<rect x="6" y="14" width="1" height="1"/>
<rect x="1" y="15" width="1" height="1"/>
<rect x="1" y="12" width="1" height="1"/>
<rect y="11" width="1" height="1"/>
<rect y="10" width="1" height="1"/>
<rect y="9" width="1" height="1"/>
<rect x="2" y="10" width="1" height="1"/>
<rect x="3" y="10" width="1" height="1"/>
<rect x="2" y="9" width="1" height="1"/>
<rect x="2" y="8" width="1" height="1"/>
<rect x="2" y="11" width="1" height="1"/>
<rect x="1" y="11" width="1" height="1"/>
<rect x="7" y="15" width="1" height="1"/>
<rect x="1" y="17" width="1" height="1"/>
<rect x="2" y="16" width="1" height="1"/>
<rect x="3" y="16" width="1" height="1"/>
<rect x="3" y="17" width="1" height="1"/>
<rect x="5" y="15" width="1" height="1"/>
<rect x="6" y="16" width="1" height="1"/>
<rect x="7" y="16" width="1" height="1"/>
<rect x="7" y="8" width="1" height="1"/>
<rect x="7" y="9" width="1" height="1"/>
<rect x="7" y="10" width="1" height="1"/>
<rect x="2" y="17" width="1" height="1"/>
<rect x="4" y="17" width="1" height="1"/>
<rect x="5" y="17" width="1" height="1"/>
<rect x="1" y="18" width="1" height="1"/>
<rect y="18" width="1" height="1"/>
<rect x="2" y="18" width="1" height="1"/>
<rect x="6" y="18" width="1" height="1"/>
<rect x="7" y="18" width="1" height="1"/>
<rect x="7" y="19" width="1" height="1"/>
<rect y="14" width="1" height="1"/>
<rect x="2" y="20" width="1" height="1"/>
<rect x="3" y="20" width="1" height="1"/>
<rect x="3" y="19" width="1" height="1"/>
<rect x="1" y="20" width="1" height="1"/>
<rect y="20" width="1" height="1"/>
<rect x="5" y="20" width="1" height="1"/>
<rect x="6" y="20" width="1" height="1"/>
<rect x="11" y="20" width="1" height="1"/>
<rect x="11" y="23" width="1" height="1"/>
<rect x="11" y="22" width="1" height="1"/>
<rect x="11" y="26" width="1" height="1"/>
<rect x="11" y="28" width="1" height="1"/>
<rect x="12" y="5" width="1" height="1"/>
<rect x="12" y="6" width="1" height="1"/>
<rect x="12" y="7" width="1" height="1"/>
<rect x="12" y="4" width="1" height="1"/>
<rect x="12" y="2" width="1" height="1"/>
<rect x="12" width="1" height="1"/>
<rect x="12" y="10" width="1" height="1"/>
<rect x="12" y="19" width="1" height="0.999"/>
<rect x="12" y="25" width="1" height="1"/>
<rect x="12" y="18" width="1" height="1"/>
<rect x="12" y="24" width="1" height="1"/>
<rect x="13" y="3" width="1" height="1"/>
<rect x="13" y="4" width="1" height="1"/>
<rect x="13" y="1" width="1" height="1"/>
<rect x="13" y="2" width="1" height="1"/>
<rect x="13" y="9" width="1" height="1"/>
<rect x="13" y="10" width="1" height="1"/>
<rect x="13" y="19" width="1" height="0.999"/>
<rect x="13" y="21" width="1" height="1"/>
<rect x="13" y="18" width="1" height="1"/>
<rect x="13" y="20" width="1" height="1"/>
<rect x="14" y="5" width="1" height="1"/>
<rect x="14" y="6" width="1" height="1"/>
<rect x="14" y="3" width="1" height="1"/>
<rect x="14" y="4" width="1" height="1"/>
<rect x="14" y="1" width="1" height="1"/>
<rect x="14" y="2" width="1" height="1"/>
<rect x="14" y="9" width="1" height="1"/>
<rect x="14" y="19" width="1" height="0.999"/>
<rect x="14" y="25" width="1" height="1"/>
<rect x="14" y="23" width="1" height="1"/>
<rect x="14" y="27" width="1" height="1"/>
<rect x="14" y="22" width="1" height="1"/>
<rect x="14" y="24" width="1" height="1"/>
<rect x="15" y="7" width="1" height="1"/>
<rect x="15" y="2" width="1" height="1"/>
<rect x="15" y="8" width="1" height="1"/>
<rect x="15" y="10" width="1" height="1"/>
<rect x="15" y="21" width="1" height="1"/>
<rect x="15" y="25" width="1" height="1"/>
<rect x="15" y="18" width="1" height="1"/>
<rect x="15" y="20" width="1" height="1"/>
<rect x="15" y="27" width="1" height="1"/>
<rect x="15" y="22" width="1" height="1"/>
<rect x="15" y="26" width="1" height="1"/>
<rect x="16" y="6" width="1" height="1"/>
<rect x="18" y="6" width="1" height="1"/>
<rect x="16" y="7" width="1" height="1"/>
<rect x="16" y="3" width="1" height="1"/>
<rect x="16" y="1" width="1" height="1"/>
<rect x="16" y="8" width="1" height="1"/>
<rect x="16" y="20" width="1" height="1"/>
<rect x="16" y="23" width="1" height="1"/>
<rect x="16" y="27" width="1" height="1"/>
<rect x="17" y="3" width="1" height="1"/>
<rect x="17" y="4" width="1" height="1"/>
<rect x="17" y="1" width="1" height="1"/>
<rect x="17" y="2" width="1" height="1"/>
<rect x="18" y="3" width="1" height="1"/>
<rect x="18" y="4" width="1" height="1"/>
<rect x="18" y="1" width="1" height="1"/>
<rect x="18" width="1" height="1"/>
<rect x="18" y="2" width="1" height="1"/>
<rect x="17" y="8" width="1" height="1"/>
<rect x="17" y="9" width="1" height="1"/>
<rect x="17" y="10" width="1" height="1"/>
<rect x="17" y="21" width="1" height="1"/>
<rect x="17" y="18" width="1" height="1"/>
<rect x="17" y="20" width="1" height="1"/>
<rect x="17" y="22" width="1" height="1"/>
<rect x="17" y="26" width="1" height="1"/>
<rect x="17" y="24" width="1" height="1"/>
<rect x="18" y="7" width="1" height="1"/>
<rect x="18" y="8" width="1" height="1"/>
<rect x="18" y="9" width="1" height="1"/>
<rect x="18" y="10" width="1" height="1"/>
<rect x="18" y="19" width="1" height="0.999"/>
<rect x="18" y="25" width="1" height="1"/>
<rect x="18" y="23" width="1" height="1"/>
<rect x="18" y="26" width="1" height="1"/>
<rect x="18" y="28" width="1" height="1"/>
<rect x="19" y="3" width="1" height="1"/>
<rect x="19" y="1" width="1" height="1"/>
<rect x="19" width="1" height="1"/>
<rect x="19" y="7" width="1" height="1"/>
<rect x="19" y="8" width="1" height="1"/>
<rect x="19" y="10" width="1" height="1"/>
<rect x="19" y="19" width="1" height="0.999"/>
<rect x="19" y="23" width="1" height="1"/>
<rect x="19" y="24" width="1" height="1"/>
<rect x="19" y="28" width="1" height="1"/>
<rect x="20" y="6" width="1" height="1"/>
<rect x="20" y="4" width="1" height="1"/>
<rect x="20" y="7" width="1" height="1"/>
<rect x="20" y="19" width="1" height="0.999"/>
<rect x="20" y="21" width="1" height="1"/>
<rect x="20" y="25" width="1" height="1"/>
<rect x="20" y="18" width="1" height="1"/>
<rect x="20" y="20" width="1" height="1"/>
<rect x="20" y="23" width="1" height="1"/>
<rect x="20" y="22" width="1" height="1"/>
<rect x="20" y="24" width="1" height="1"/>
<rect x="20" y="28" width="1" height="1"/>
<rect x="21" y="8" width="1" height="1"/>
<rect x="21" y="11" width="1" height="1"/>
<rect x="21" y="12" width="1" height="1"/>
<rect x="21" y="15" width="1" height="1"/>
<rect x="21" y="17" width="1" height="1"/>
<rect x="21" y="19" width="1" height="0.999"/>
<rect x="21" y="25" width="1" height="1"/>
<rect x="21" y="20" width="1" height="1"/>
<rect x="21" y="27" width="1" height="1"/>
<rect x="21" y="26" width="1" height="1"/>
<rect x="21" y="24" width="1" height="1"/>
<rect x="21" y="28" width="1" height="1"/>
<rect x="22" y="11" width="1" height="1"/>
<rect x="22" y="12" width="1" height="1"/>
<rect x="22" y="13" width="1" height="1"/>
<rect x="22" y="14" width="1" height="1"/>
<rect x="22" y="16" width="1" height="1"/>
<rect x="22" y="17" width="1" height="1"/>
<rect x="22" y="19" width="1" height="0.999"/>
<rect x="22" y="20" width="1" height="1"/>
<rect x="22" y="22" width="1" height="1"/>
<rect x="22" y="24" width="1" height="1"/>
<rect x="22" y="28" width="1" height="1"/>
<rect x="23" y="8" width="1" height="1"/>
<rect x="23" y="9" width="1" height="1"/>
<rect x="23" y="12" width="1" height="1"/>
<rect x="23" y="14" width="1" height="1"/>
<rect x="23" y="16" width="1" height="1"/>
<rect x="23" y="17" width="1" height="1"/>
<rect x="23" y="25" width="1" height="1"/>
<rect x="23" y="20" width="1" height="1"/>
<rect x="23" y="26" width="1" height="1"/>
<rect x="23" y="24" width="1" height="1"/>
<rect x="23" y="28" width="1" height="1"/>
<rect x="24" y="8" width="1" height="1"/>
<rect x="24" y="10" width="1" height="1"/>
<rect x="24" y="15" width="1" height="1"/>
<rect x="24" y="16" width="1" height="1"/>
<rect x="24" y="19" width="1" height="0.999"/>
<rect x="24" y="21" width="1" height="1"/>
<rect x="24" y="25" width="1" height="1"/>
<rect x="24" y="18" width="1" height="1"/>
<rect x="24" y="20" width="1" height="1"/>
<rect x="24" y="23" width="1" height="1"/>
<rect x="24" y="22" width="1" height="1"/>
<rect x="24" y="26" width="1" height="1"/>
<rect x="24" y="24" width="1" height="1"/>
<rect x="24" y="28" width="1" height="1"/>
<rect x="25" y="8" width="1" height="1"/>
<rect x="25" y="9" width="1" height="1"/>
<rect x="25" y="11" width="1" height="1"/>
<rect x="25" y="12" width="1" height="1"/>
<rect x="25" y="13" width="1" height="1"/>
<rect x="25" y="14" width="1" height="1"/>
<rect x="25" y="15" width="1" height="1"/>
<rect x="25" y="19" width="1" height="0.999"/>
<rect x="25" y="21" width="1" height="1"/>
<rect x="25" y="18" width="1" height="1"/>
<rect x="25" y="20" width="1" height="1"/>
<rect x="25" y="23" width="1" height="1"/>
<rect x="25" y="27" width="1" height="1"/>
<rect x="25" y="22" width="1" height="1"/>
<rect x="26" y="8" width="1" height="1"/>
<rect x="26" y="9" width="1" height="1"/>
<rect x="26" y="14" width="1" height="1"/>
<rect x="26" y="17" width="1" height="1"/>
<rect x="26" y="25" width="1" height="1"/>
<rect x="26" y="22" width="1" height="1"/>
<rect x="26" y="26" width="1" height="1"/>
<rect x="26" y="28" width="1" height="1"/>
<rect x="27" y="8" width="1" height="1"/>
<rect x="27" y="9" width="1" height="1"/>
<rect x="27" y="12" width="1" height="1"/>
<rect x="27" y="14" width="1" height="1"/>
<rect x="27" y="16" width="1" height="1"/>
<rect x="27" y="21" width="1" height="1"/>
<rect x="27" y="25" width="1" height="1"/>
<rect x="27" y="23" width="1" height="1"/>
<rect x="27" y="26" width="1" height="1"/>
<rect x="27" y="24" width="1" height="1"/>
<rect x="28" y="9" width="1" height="1"/>
<rect x="28" y="10" width="1" height="1"/>
<rect x="28" y="13" width="1" height="1"/>
<rect x="28" y="14" width="1" height="1"/>
<rect x="28" y="17" width="1" height="1"/>
<rect x="28" y="21" width="1" height="1"/>
<rect x="28" y="18" width="1" height="1"/>
<rect x="28" y="20" width="1" height="1"/>
<rect x="28" y="23" width="1" height="1"/>
<rect x="28" y="22" width="1" height="1"/>
<rect x="28" y="26" width="1" height="1"/>
<rect x="28" y="24" width="1" height="1"/>
<rect x="28" y="28" width="1" height="1"/>
<rect x="10" y="6" width="1" height="1"/>
<rect x="10" y="2" width="1" height="1"/>
<rect x="10" y="8" width="1" height="1"/>
<rect x="10" y="10" width="1" height="1"/>
<rect x="10" y="21" width="1" height="1"/>
<rect x="10" y="27" width="1" height="1"/>
<rect x="10" y="22" width="1" height="1"/>
<rect x="10" y="24" width="1" height="1"/>
<rect x="10" y="28" width="1" height="1"/>
<rect x="9" y="5" width="1" height="1"/>
<rect x="9" y="7" width="1" height="1"/>
<rect x="9" y="3" width="1" height="1"/>
<rect x="9" y="4" width="1" height="1"/>
<rect x="9" y="8" width="1" height="1"/>
<rect x="9" y="9" width="1" height="1"/>
<rect x="9" y="21" width="1" height="1"/>
<rect x="9" y="25" width="1" height="1"/>
<rect x="9" y="18" width="1" height="1"/>
<rect x="9" y="20" width="1" height="1"/>
<rect x="9" y="23" width="1" height="1"/>
<rect x="9" y="24" width="1" height="1"/>
<rect x="8" y="5" width="1" height="1"/>
<rect x="8" y="6" width="1" height="1"/>
<rect x="8" y="3" width="1" height="1"/>
<rect x="8" y="4" width="1" height="1"/>
<rect x="8" y="1" width="1" height="1"/>
<rect x="8" y="2" width="1" height="1"/>
<rect x="8" y="8" width="1" height="1"/>
<rect x="8" y="19" width="1" height="0.999"/>
<rect x="8" y="21" width="1" height="1"/>
<rect x="8" y="18" width="1" height="1"/>
<rect x="8" y="23" width="1" height="1"/>
<rect x="8" y="22" width="1" height="1"/>
<rect x="8" y="26" width="1" height="1"/>
<rect x="2" y="2" width="3" height="3"/>
<rect x="24" y="2" width="3" height="3"/>
<rect x="2" y="24" width="3" height="3"/>
<path fill="#00B900" d="M16.019,14.757c0.139,0,0.251-0.113,0.251-0.251c0-0.14-0.112-0.251-0.251-0.251l0,0h-0.699v-0.45h0.699
	c0.139,0,0.251-0.112,0.251-0.251c0-0.138-0.112-0.251-0.251-0.251l0,0h-0.952c-0.138,0-0.251,0.113-0.251,0.251v1.904
	c-0.001,0.138,0.111,0.251,0.249,0.252c0,0,0.001,0,0.002,0h0.952c0.139,0,0.251-0.113,0.251-0.251c0-0.139-0.112-0.251-0.251-0.251
	l0,0h-0.699v-0.451H16.019z"/>
<path fill="#00B900" d="M14.228,13.302c-0.139,0-0.251,0.113-0.251,0.251v1.177L13,13.403c-0.047-0.063-0.122-0.101-0.201-0.101
	c-0.026,0-0.052,0.005-0.077,0.013c-0.104,0.034-0.172,0.13-0.172,0.238v1.904c0,0.138,0.112,0.25,0.251,0.25
	c0.139,0,0.251-0.112,0.251-0.25l0,0v-1.177l0.975,1.328c0.047,0.063,0.121,0.101,0.199,0.102c0.027,0,0.054-0.004,0.08-0.012
	c0.103-0.035,0.172-0.131,0.171-0.239v-1.906C14.479,13.415,14.366,13.302,14.228,13.302z"/>
<path fill="#00B900" d="M11.937,13.302c-0.139,0-0.251,0.113-0.251,0.251v1.904c-0.005,0.138,0.103,0.254,0.242,0.26
	c0.139,0.005,0.255-0.104,0.26-0.242c0-0.006,0-0.012,0-0.018v-1.904C12.188,13.415,12.075,13.302,11.937,13.302L11.937,13.302z"/>
<path fill="#00B900" d="M11.204,15.205h-0.701v-1.652c0.005-0.138-0.104-0.255-0.242-0.26c-0.138-0.005-0.255,0.103-0.26,0.241
	c0,0.007,0,0.013,0,0.019v1.904C10,15.596,10.111,15.709,10.25,15.71c0.001,0,0.001,0,0.002,0h0.952
	c0.138,0,0.251-0.113,0.251-0.251c0-0.139-0.113-0.251-0.251-0.251V15.205z"/>
<path fill="#00B900" d="M17.792,15.698c-0.667,0-1.208-0.541-1.208-1.207c0-0.001,0-0.001,0-0.001l0,0
	c0-0.667,0.541-1.208,1.208-1.208l0,0c0.667,0,1.208,0.541,1.208,1.208l0,0v0.167c0,0.252-0.204,0.456-0.456,0.456l0,0l0,0
	c-0.252,0-0.457-0.204-0.457-0.456l0,0l0,0V14.49c0-0.163-0.131-0.294-0.294-0.294l0,0c-0.162,0-0.294,0.131-0.294,0.294l0,0
	c0.001,0.162,0.133,0.293,0.294,0.294l0,0c0.02,0,0.041-0.002,0.06-0.005l0,0c0.088-0.019,0.175,0.039,0.193,0.127l0,0
	c0.018,0.088-0.039,0.176-0.127,0.194l0,0l0,0c-0.042,0.008-0.083,0.012-0.125,0.012l0,0c-0.344,0-0.623-0.278-0.625-0.622l0,0l0,0
	c0-0.344,0.278-0.623,0.623-0.623c0,0,0,0,0.001,0l0,0c0.344,0,0.623,0.279,0.623,0.623v0l0,0v0.167
	c0,0.071,0.058,0.128,0.129,0.128l0,0c0.071-0.001,0.128-0.058,0.128-0.128l0,0V14.49c-0.001-0.485-0.394-0.878-0.88-0.88l0,0
	c-0.486,0.001-0.879,0.395-0.88,0.88l0,0c0.001,0.485,0.395,0.878,0.88,0.88l0,0c0.115,0.001,0.23-0.021,0.336-0.065l0,0
	c0.084-0.035,0.18,0.005,0.215,0.089l0,0l0,0c0.034,0.083-0.005,0.179-0.089,0.214l0,0c-0.147,0.061-0.303,0.091-0.462,0.091l0,0
	L17.792,15.698z"/>
<path d="M5.95,0C5.95,0,2,0,2,0C0.895,0,0,0.895,0,2V5.95V7h1.05h4.9H7V5.95v-4.9V0H5.95z M6,6H1V2c0-0.553,0.447-1,1-1h4V6z"/>
<path d="M0,23.05c0,0,0,3.95,0,3.95c0,1.104,0.895,2,2,2H5.95H7v-1.05v-4.9V22H5.95h-4.9H0V23.05z M6,23v5H2c-0.553,0-1-0.447-1-1
	v-4H6z"/>
<path d="M29,5.95c0,0,0-3.95,0-3.95c0-1.104-0.895-2-2-2H23.05H22v1.05v4.9V7h1.05h4.9H29V5.95z M23,6V1h4c0.553,0,1,0.447,1,1v4H23
	z"/>
</svg>
