<?xml version="1.0" encoding="utf-8"?>
<!-- Generator: Adobe Illustrator 16.0.0, SVG Export Plug-In . SVG Version: 6.00 Build 0)  -->
<!DOCTYPE svg PUBLIC "-//W3C//DTD SVG 1.1//EN" "http://www.w3.org/Graphics/SVG/1.1/DTD/svg11.dtd">
<svg version="1.1" id="Layer_1" xmlns="http://www.w3.org/2000/svg" xmlns:xlink="http://www.w3.org/1999/xlink" x="0px" y="0px"
	 width="80px" height="60px" viewBox="0 0 80 60" enable-background="new 0 0 80 60" xml:space="preserve">
<path fill="#40B9D8" d="M40,8.836c-11.687,0-21.159,9.474-21.159,21.159c0,4.534,1.432,8.732,3.859,12.177l-1.955,7.609l8.57-1.373
	c2.051,0.662,3.658,2.529,10.685,2.745c11.68,0.357,21.159-9.473,21.159-21.158S51.686,8.836,40,8.836"/>
<g>
	<path d="M47.879,19.761c-0.004-0.229-0.071-0.487-0.199-0.715c-0.129-0.229-0.305-0.415-0.495-0.581
		c-0.386-0.331-0.849-0.554-1.365-0.746c-0.519-0.193-1.096-0.344-1.728-0.465c-0.633-0.118-1.318-0.21-2.047-0.266
		s-1.499-0.076-2.301-0.057c-0.803,0.02-1.637,0.076-2.489,0.198c-0.851,0.122-1.723,0.295-2.592,0.599
		c-0.434,0.154-0.87,0.339-1.295,0.62c-0.211,0.144-0.423,0.312-0.61,0.556c-0.092,0.123-0.178,0.265-0.234,0.433
		c-0.01,0.027-0.014,0.057-0.021,0.085c-0.23,0.109-0.398,0.26-0.38,0.418c0.037,0.358,0.128,0.814,0.207,1.418
		c0.076,0.605,0.166,1.334,0.271,2.168c0.094,0.838,0.2,1.781,0.316,2.813c0.11,1.032,0.229,2.155,0.357,3.349
		c0.123,1.193,0.252,2.459,0.387,3.775c0.13,1.32,0.266,2.691,0.406,4.099l0.187,1.933l-0.002-0.05
		c0.003,0.508,0.167,1.002,0.42,1.407c0.254,0.405,0.579,0.745,0.936,1.014c0.66,0.502,1.41,0.817,2.174,1.028
		c0.768,0.209,1.558,0.29,2.345,0.281c0.785-0.012,1.574-0.123,2.336-0.353c0.761-0.229,1.499-0.582,2.134-1.124
		c0.303-0.272,0.598-0.578,0.803-0.968c0.21-0.383,0.342-0.828,0.348-1.286l-0.002,0.05l0.209-2.153
		c0.138-1.403,0.273-2.769,0.404-4.08c0.135-1.311,0.264-2.567,0.384-3.751c0.127-1.184,0.245-2.295,0.353-3.315
		c0.117-1.02,0.223-1.95,0.314-2.771c0.104-0.821,0.192-1.534,0.266-2.121c0.079-0.587,0.168-1.044,0.202-1.362
		c0.001-0.008-0.005-0.013-0.005-0.02C47.872,19.802,47.879,19.779,47.879,19.761z M33.566,19.519
		c0.082-0.11,0.215-0.225,0.367-0.326c0.31-0.202,0.685-0.363,1.069-0.492c0.77-0.262,1.59-0.416,2.393-0.52
		c0.804-0.095,1.599-0.135,2.36-0.131c0.764,0.002,1.495,0.047,2.178,0.124c0.682,0.078,1.315,0.196,1.882,0.341
		c0.564,0.144,1.065,0.314,1.466,0.506c0.399,0.187,0.703,0.402,0.838,0.571c0.047,0.054,0.062,0.099,0.066,0.136
		c-0.001,0.012-0.014,0.021-0.013,0.033c0-0.005,0.009,0.002,0.015-0.003c-0.002,0.005,0.002,0.015,0,0.018
		c-0.002,0.002-0.003,0-0.003,0.002c0.003,0.008,0.012,0.014,0.016,0.021c-0.01,0.031-0.026,0.069-0.067,0.118
		c-0.119,0.163-0.414,0.376-0.801,0.564c-0.392,0.188-0.879,0.366-1.438,0.509c-0.558,0.147-1.184,0.267-1.86,0.35
		c-0.677,0.078-1.401,0.129-2.161,0.134c-0.757,0.01-1.549-0.028-2.352-0.116c-0.801-0.097-1.62-0.243-2.396-0.494
		c-0.387-0.122-0.767-0.274-1.09-0.471c-0.326-0.185-0.574-0.463-0.57-0.607C33.456,19.714,33.482,19.631,33.566,19.519z
		 M45.81,25.976c-0.077,1.023-0.163,2.138-0.253,3.324c-0.099,1.187-0.204,2.446-0.312,3.758c-0.111,1.312-0.228,2.681-0.348,4.085
		l-0.191,2.155c-0.002,0.015-0.003,0.03-0.003,0.044v0.003c-0.005,0.537-0.306,1.069-0.782,1.477
		c-0.482,0.421-1.099,0.732-1.756,0.929c-0.657,0.2-1.354,0.302-2.052,0.312c-0.698,0.008-1.401-0.065-2.067-0.249
		c-0.661-0.185-1.297-0.464-1.807-0.862c-0.556-0.427-0.942-1.009-0.94-1.605c0-0.014,0-0.029-0.002-0.043v-0.004l-0.174-1.935
		c-0.119-1.408-0.235-2.782-0.348-4.103c-0.109-1.319-0.216-2.588-0.315-3.782c-0.092-1.196-0.178-2.323-0.258-3.358
		c-0.072-1.036-0.141-1.983-0.199-2.824c-0.045-0.694-0.081-1.297-0.11-1.836c0.303,0.149,0.606,0.278,0.909,0.381
		c0.87,0.289,1.74,0.453,2.589,0.568c0.85,0.114,1.681,0.169,2.478,0.183c0.797,0.016,1.563-0.01,2.286-0.068
		c0.722-0.061,1.401-0.152,2.025-0.275c0.626-0.12,1.195-0.278,1.704-0.47c0.076-0.03,0.142-0.067,0.215-0.099
		c-0.025,0.457-0.055,0.949-0.091,1.514C45.948,24.018,45.883,24.951,45.81,25.976z"/>
	<path d="M46.185,19.777c-0.002-0.007-0.011-0.01-0.012-0.017C46.147,19.775,46.168,19.796,46.185,19.777z"/>
</g>
<g>
	<path fill="#FFFFFF" d="M46.355,19.775c0.002-0.003-0.002-0.013,0-0.018c-0.006,0.005-0.015-0.002-0.015,0.003
		c0.001,0.007,0.01,0.01,0.012,0.017C46.353,19.775,46.354,19.777,46.355,19.775z"/>
	<path fill="#FFFFFF" d="M46.287,19.592c-0.135-0.169-0.438-0.385-0.838-0.571c-0.4-0.191-0.901-0.362-1.466-0.506
		c-0.566-0.145-1.2-0.263-1.882-0.341c-0.683-0.077-1.414-0.122-2.178-0.124c-0.762-0.004-1.557,0.036-2.36,0.131
		c-0.803,0.104-1.623,0.258-2.393,0.52c-0.385,0.129-0.76,0.29-1.069,0.492c-0.152,0.102-0.285,0.216-0.367,0.326
		c-0.084,0.112-0.11,0.195-0.102,0.267c-0.004,0.145,0.244,0.423,0.57,0.607c0.323,0.196,0.703,0.349,1.09,0.471
		c0.776,0.251,1.596,0.397,2.396,0.494c0.803,0.088,1.595,0.126,2.352,0.116c0.76-0.005,1.484-0.056,2.161-0.134
		c0.677-0.083,1.303-0.202,1.86-0.35c0.559-0.143,1.046-0.32,1.438-0.509c0.387-0.188,0.682-0.401,0.801-0.564
		c0.041-0.049,0.058-0.087,0.067-0.118c-0.004-0.008-0.013-0.014-0.016-0.021c-0.017,0.019-0.037-0.002-0.012-0.017
		c-0.001-0.013,0.012-0.021,0.013-0.033C46.35,19.69,46.334,19.646,46.287,19.592z"/>
</g>
<g>
	<path fill="#FFFFFF" d="M46.147,19.775c0.002-0.002,0-0.009,0-0.015h-0.015c0.001,0.007,0.01,0.01,0.012,0.017
		C46.145,19.775,46.146,19.777,46.147,19.775z"/>
	<path fill="#FFFFFF" d="M35.258,39.345c-0.002,0.597,0.385,1.179,0.94,1.605c0.51,0.398,1.146,0.678,1.807,0.862
		c0.666,0.184,1.369,0.257,2.067,0.249c0.698-0.01,1.395-0.111,2.052-0.312c0.657-0.196,1.273-0.508,1.756-0.929
		c0.477-0.407,0.777-0.939,0.782-1.477v-0.003c0-0.014,0.001-0.029,0.003-0.044l0.191-2.155c0.12-1.404,0.236-2.772,0.348-4.085
		c0.108-1.312,0.214-2.571,0.312-3.758c0.09-1.187,0.176-2.301,0.253-3.324c0.073-1.024,0.139-1.958,0.197-2.782
		c0.036-0.564,0.065-1.057,0.091-1.514c-0.073,0.031-0.139,0.068-0.215,0.099c-0.509,0.191-1.078,0.35-1.704,0.47
		c-0.624,0.123-1.304,0.215-2.025,0.275c-0.723,0.059-1.489,0.084-2.286,0.068c-0.797-0.014-1.628-0.068-2.478-0.183
		c-0.849-0.115-1.719-0.279-2.589-0.568c-0.303-0.103-0.606-0.231-0.909-0.381c0.029,0.539,0.065,1.142,0.11,1.836
		c0.059,0.841,0.127,1.788,0.199,2.824c0.08,1.035,0.166,2.162,0.258,3.358c0.1,1.194,0.206,2.463,0.315,3.782
		c0.112,1.32,0.229,2.694,0.348,4.103l0.174,1.935v0.004C35.258,39.315,35.258,39.331,35.258,39.345z"/>
</g>
</svg>
