<?xml version="1.0" encoding="utf-8"?>
<!-- Generator: Adobe Illustrator 16.0.0, SVG Export Plug-In . SVG Version: 6.00 Build 0)  -->
<!DOCTYPE svg PUBLIC "-//W3C//DTD SVG 1.1//EN" "http://www.w3.org/Graphics/SVG/1.1/DTD/svg11.dtd">
<svg version="1.1" id="Layer_1" xmlns="http://www.w3.org/2000/svg" xmlns:xlink="http://www.w3.org/1999/xlink" x="0px" y="0px"
	 width="80px" height="60px" viewBox="0 0 80 60" enable-background="new 0 0 80 60" xml:space="preserve">
<g>
	<rect x="53" y="12" width="1" height="1"/>
	<rect x="53" y="10" width="1" height="1"/>
	<rect x="53" y="18" width="1" height="1"/>
	<rect x="42" y="22" width="1" height="1"/>
	<rect x="44" y="22" width="1" height="1"/>
	<rect x="47" y="22" width="1" height="1"/>
	<rect x="47" y="21" width="1" height="1"/>
	<rect x="47" y="20" width="1" height="1"/>
	<rect x="47" y="18" width="1" height="1"/>
	<rect x="48" y="22" width="1" height="1"/>
	<rect x="48" y="20" width="1" height="1"/>
	<rect x="48" y="18" width="1" height="1"/>
	<rect x="49" y="22" width="1" height="1"/>
	<rect x="44" y="23" width="1" height="1"/>
	<rect x="44" y="24" width="1" height="1"/>
	<rect x="45" y="23" width="1" height="1"/>
	<rect x="46" y="22" width="1" height="1"/>
	<rect x="46" y="21" width="1" height="1"/>
	<rect x="49" y="24" width="1" height="1"/>
	<rect x="53" y="20" width="1" height="1"/>
	<rect x="46" y="25" width="1" height="1"/>
	<rect x="48" y="24" width="1" height="1"/>
	<rect x="43" y="25" width="1" height="1"/>
	<rect x="43" y="22" width="1" height="1"/>
	<rect x="42" y="21" width="1" height="1"/>
	<rect x="42" y="20" width="1" height="1"/>
	<rect x="42" y="19" width="1" height="1"/>
	<rect x="44" y="20" width="1" height="1"/>
	<rect x="45" y="20" width="1" height="1"/>
	<rect x="44" y="19" width="1" height="1"/>
	<rect x="44" y="18" width="1" height="1"/>
	<rect x="44" y="21" width="1" height="1"/>
	<rect x="43" y="21" width="1" height="1"/>
	<rect x="49" y="25" width="1" height="1"/>
	<rect x="43" y="27" width="1" height="1"/>
	<rect x="44" y="26" width="1" height="1"/>
	<rect x="45" y="26" width="1" height="1"/>
	<rect x="45" y="27" width="1" height="1"/>
	<rect x="47" y="25" width="1" height="1"/>
	<rect x="48" y="26" width="1" height="1"/>
	<rect x="49" y="26" width="1" height="1"/>
	<rect x="49" y="18" width="1" height="1"/>
	<rect x="49" y="19" width="1" height="1"/>
	<rect x="49" y="20" width="1" height="1"/>
	<rect x="44" y="27" width="1" height="1"/>
	<rect x="46" y="27" width="1" height="1"/>
	<rect x="47" y="27" width="1" height="1"/>
	<rect x="43" y="28" width="1" height="1"/>
	<rect x="42" y="28" width="1" height="1"/>
	<rect x="44" y="28" width="1" height="1"/>
	<rect x="48" y="28" width="1" height="1"/>
	<rect x="49" y="28" width="1" height="1"/>
	<rect x="49" y="29" width="1" height="1"/>
	<rect x="42" y="24" width="1" height="1"/>
	<rect x="44" y="30" width="1" height="1"/>
	<rect x="45" y="30" width="1" height="1"/>
	<rect x="45" y="29" width="1" height="1"/>
	<rect x="43" y="30" width="1" height="1"/>
	<rect x="42" y="30" width="1" height="1"/>
	<rect x="47" y="30" width="1" height="1"/>
	<rect x="48" y="30" width="1" height="1"/>
	<rect x="53" y="30" width="1" height="1"/>
	<rect x="53" y="33" width="1" height="1"/>
	<rect x="53" y="32" width="1" height="1"/>
	<rect x="53" y="36" width="1" height="1"/>
	<rect x="53" y="38" width="1" height="1"/>
	<rect x="54" y="15" width="1" height="1"/>
	<rect x="54" y="16" width="1" height="1"/>
	<rect x="54" y="17" width="1" height="1"/>
	<rect x="54" y="14" width="1" height="1"/>
	<rect x="54" y="12" width="1" height="1"/>
	<rect x="54" y="10" width="1" height="1"/>
	<rect x="54" y="20" width="1" height="1"/>
	<rect x="54" y="29" width="1" height="1"/>
	<rect x="54" y="35" width="1" height="1"/>
	<rect x="54" y="28" width="1" height="1"/>
	<rect x="54" y="34" width="1" height="1"/>
	<rect x="55" y="13" width="1" height="1"/>
	<rect x="55" y="14" width="1" height="1"/>
	<rect x="55" y="11" width="1" height="1"/>
	<rect x="55" y="12" width="1" height="1"/>
	<rect x="55" y="19" width="1" height="1"/>
	<rect x="55" y="20" width="1" height="1"/>
	<rect x="55" y="29" width="1" height="1"/>
	<rect x="55" y="31" width="1" height="1"/>
	<rect x="55" y="28" width="1" height="1"/>
	<rect x="55" y="30" width="1" height="1"/>
	<rect x="56" y="15" width="1" height="1"/>
	<rect x="56" y="16" width="1" height="1"/>
	<rect x="56" y="13" width="1" height="1"/>
	<rect x="56" y="14" width="1" height="1"/>
	<rect x="56" y="11" width="1" height="1"/>
	<rect x="56" y="12" width="1" height="1"/>
	<rect x="56" y="19" width="1" height="1"/>
	<rect x="56" y="29" width="1" height="1"/>
	<rect x="56" y="35" width="1" height="1"/>
	<rect x="56" y="33" width="1" height="1"/>
	<rect x="56" y="37" width="1" height="1"/>
	<rect x="56" y="32" width="1" height="1"/>
	<rect x="56" y="34" width="1" height="1"/>
	<rect x="57" y="17" width="1" height="1"/>
	<rect x="57" y="12" width="1" height="1"/>
	<rect x="57" y="18" width="1" height="1"/>
	<rect x="57" y="20" width="1" height="1"/>
	<rect x="57" y="31" width="1" height="1"/>
	<rect x="57" y="35" width="1" height="1"/>
	<rect x="57" y="28" width="1" height="1"/>
	<rect x="57" y="30" width="1" height="1"/>
	<rect x="57" y="37" width="1" height="1"/>
	<rect x="57" y="32" width="1" height="1"/>
	<rect x="57" y="36" width="1" height="1"/>
	<rect x="58" y="16" width="1" height="1"/>
	<rect x="60" y="16" width="1" height="1"/>
	<rect x="58" y="17" width="1" height="1"/>
	<rect x="58" y="13" width="1" height="1"/>
	<rect x="58" y="11" width="1" height="1"/>
	<rect x="58" y="18" width="1" height="1"/>
	<rect x="58" y="30" width="1" height="1"/>
	<rect x="58" y="33" width="1" height="1"/>
	<rect x="58" y="37" width="1" height="1"/>
	<rect x="59" y="13" width="1" height="1"/>
	<rect x="59" y="14" width="1" height="1"/>
	<rect x="59" y="11" width="1" height="1"/>
	<rect x="59" y="12" width="1" height="1"/>
	<rect x="60" y="13" width="1" height="1"/>
	<rect x="60" y="14" width="1" height="1"/>
	<rect x="60" y="11" width="1" height="1"/>
	<rect x="60" y="10" width="1" height="1"/>
	<rect x="60" y="12" width="1" height="1"/>
	<rect x="59" y="18" width="1" height="1"/>
	<rect x="59" y="19" width="1" height="1"/>
	<rect x="59" y="20" width="1" height="1"/>
	<rect x="59" y="31" width="1" height="1"/>
	<rect x="59" y="28" width="1" height="1"/>
	<rect x="59" y="30" width="1" height="1"/>
	<rect x="59" y="32" width="1" height="1"/>
	<rect x="59" y="36" width="1" height="1"/>
	<rect x="59" y="34" width="1" height="1"/>
	<rect x="60" y="17" width="1" height="1"/>
	<rect x="60" y="18" width="1" height="1"/>
	<rect x="60" y="19" width="1" height="1"/>
	<rect x="60" y="20" width="1" height="1"/>
	<rect x="60" y="29" width="1" height="1"/>
	<rect x="60" y="35" width="1" height="1"/>
	<rect x="60" y="33" width="1" height="1"/>
	<rect x="60" y="36" width="1" height="1"/>
	<rect x="60" y="38" width="1" height="1"/>
	<rect x="61" y="13" width="1" height="1"/>
	<rect x="61" y="11" width="1" height="1"/>
	<rect x="61" y="10" width="1" height="1"/>
	<rect x="61" y="17" width="1" height="1"/>
	<rect x="61" y="18" width="1" height="1"/>
	<rect x="61" y="20" width="1" height="1"/>
	<rect x="61" y="29" width="1" height="1"/>
	<rect x="61" y="33" width="1" height="1"/>
	<rect x="61" y="34" width="1" height="1"/>
	<rect x="61" y="38" width="1" height="1"/>
	<rect x="62" y="16" width="1" height="1"/>
	<rect x="62" y="14" width="1" height="1"/>
	<rect x="62" y="17" width="1" height="1"/>
	<rect x="62" y="29" width="1" height="1"/>
	<rect x="62" y="31" width="1" height="1"/>
	<rect x="62" y="35" width="1" height="1"/>
	<rect x="62" y="28" width="1" height="1"/>
	<rect x="62" y="30" width="1" height="1"/>
	<rect x="62" y="33" width="1" height="1"/>
	<rect x="62" y="32" width="1" height="1"/>
	<rect x="62" y="34" width="1" height="1"/>
	<rect x="62" y="38" width="1" height="1"/>
	<rect x="63" y="18" width="1" height="1"/>
	<rect x="63" y="21" width="1" height="1"/>
	<rect x="63" y="22" width="1" height="1"/>
	<rect x="63" y="25" width="1" height="1"/>
	<rect x="63" y="27" width="1" height="1"/>
	<rect x="63" y="29" width="1" height="1"/>
	<rect x="63" y="35" width="1" height="1"/>
	<rect x="63" y="30" width="1" height="1"/>
	<rect x="63" y="37" width="1" height="1"/>
	<rect x="63" y="36" width="1" height="1"/>
	<rect x="63" y="34" width="1" height="1"/>
	<rect x="63" y="38" width="1" height="1"/>
	<rect x="64" y="21" width="1" height="1"/>
	<rect x="64" y="22" width="1" height="1"/>
	<rect x="64" y="23" width="1" height="1"/>
	<rect x="64" y="24" width="1" height="1"/>
	<rect x="64" y="26" width="1" height="1"/>
	<rect x="64" y="27" width="1" height="1"/>
	<rect x="64" y="29" width="1" height="1"/>
	<rect x="64" y="30" width="1" height="1"/>
	<rect x="64" y="32" width="1" height="1"/>
	<rect x="64" y="34" width="1" height="1"/>
	<rect x="64" y="38" width="1" height="1"/>
	<rect x="65" y="18" width="1" height="1"/>
	<rect x="65" y="19" width="1" height="1"/>
	<rect x="65" y="22" width="1" height="1"/>
	<rect x="65" y="24" width="1" height="1"/>
	<rect x="65" y="26" width="1" height="1"/>
	<rect x="65" y="27" width="1" height="1"/>
	<rect x="65" y="35" width="1" height="1"/>
	<rect x="65" y="30" width="1" height="1"/>
	<rect x="65" y="36" width="1" height="1"/>
	<rect x="65" y="34" width="1" height="1"/>
	<rect x="65" y="38" width="1" height="1"/>
	<rect x="66" y="18" width="1" height="1"/>
	<rect x="66" y="20" width="1" height="1"/>
	<rect x="66" y="25" width="1" height="1"/>
	<rect x="66" y="26" width="1" height="1"/>
	<rect x="66" y="29" width="1" height="1"/>
	<rect x="66" y="31" width="1" height="1"/>
	<rect x="66" y="35" width="1" height="1"/>
	<rect x="66" y="28" width="1" height="1"/>
	<rect x="66" y="30" width="1" height="1"/>
	<rect x="66" y="33" width="1" height="1"/>
	<rect x="66" y="32" width="1" height="1"/>
	<rect x="66" y="36" width="1" height="1"/>
	<rect x="66" y="34" width="1" height="1"/>
	<rect x="66" y="38" width="1" height="1"/>
	<rect x="67" y="18" width="1" height="1"/>
	<rect x="67" y="19" width="1" height="1"/>
	<rect x="67" y="21" width="1" height="1"/>
	<rect x="67" y="22" width="1" height="1"/>
	<rect x="67" y="23" width="1" height="1"/>
	<rect x="67" y="24" width="1" height="1"/>
	<rect x="67" y="25" width="1" height="1"/>
	<rect x="67" y="29" width="1" height="1"/>
	<rect x="67" y="31" width="1" height="1"/>
	<rect x="67" y="28" width="1" height="1"/>
	<rect x="67" y="30" width="1" height="1"/>
	<rect x="67" y="33" width="1" height="1"/>
	<rect x="67" y="37" width="1" height="1"/>
	<rect x="67" y="32" width="1" height="1"/>
	<rect x="68" y="18" width="1" height="1"/>
	<rect x="68" y="19" width="1" height="1"/>
	<rect x="68" y="24" width="1" height="1"/>
	<rect x="68" y="27" width="1" height="1"/>
	<rect x="68" y="35" width="1" height="1"/>
	<rect x="68" y="32" width="1" height="1"/>
	<rect x="68" y="36" width="1" height="1"/>
	<rect x="68" y="38" width="1" height="1"/>
	<rect x="69" y="18" width="1" height="1"/>
	<rect x="69" y="19" width="1" height="1"/>
	<rect x="69" y="22" width="1" height="1"/>
	<rect x="69" y="24" width="1" height="1"/>
	<rect x="69" y="26" width="1" height="1"/>
	<rect x="69" y="31" width="1" height="1"/>
	<rect x="69" y="35" width="1" height="1"/>
	<rect x="69" y="33" width="1" height="1"/>
	<rect x="69" y="36" width="1" height="1"/>
	<rect x="69" y="34" width="1" height="1"/>
	<rect x="70" y="19" width="1" height="1"/>
	<rect x="70" y="20" width="1" height="1"/>
	<rect x="70" y="23" width="1" height="1"/>
	<rect x="70" y="24" width="1" height="1"/>
	<rect x="70" y="27" width="1" height="1"/>
	<rect x="70" y="31" width="1" height="1"/>
	<rect x="70" y="28" width="1" height="1"/>
	<rect x="70" y="30" width="1" height="1"/>
	<rect x="70" y="33" width="1" height="1"/>
	<rect x="70" y="32" width="1" height="1"/>
	<rect x="70" y="36" width="1" height="1"/>
	<rect x="70" y="34" width="1" height="1"/>
	<rect x="70" y="38" width="1" height="1"/>
	<rect x="52" y="16" width="1" height="1"/>
	<rect x="52" y="12" width="1" height="1"/>
	<rect x="52" y="18" width="1" height="1"/>
	<rect x="52" y="20" width="1" height="1"/>
	<rect x="52" y="31" width="1" height="1"/>
	<rect x="52" y="37" width="1" height="1"/>
	<rect x="52" y="32" width="1" height="1"/>
	<rect x="52" y="34" width="1" height="1"/>
	<rect x="52" y="38" width="1" height="1"/>
	<rect x="51" y="15" width="1" height="1"/>
	<rect x="51" y="17" width="1" height="1"/>
	<rect x="51" y="13" width="1" height="1"/>
	<rect x="51" y="14" width="1" height="1"/>
	<rect x="51" y="18" width="1" height="1"/>
	<rect x="51" y="19" width="1" height="1"/>
	<rect x="51" y="31" width="1" height="1"/>
	<rect x="51" y="35" width="1" height="1"/>
	<rect x="51" y="28" width="1" height="1"/>
	<rect x="51" y="30" width="1" height="1"/>
	<rect x="51" y="33" width="1" height="1"/>
	<rect x="51" y="34" width="1" height="1"/>
	<rect x="50" y="15" width="1" height="1"/>
	<rect x="50" y="16" width="1" height="1"/>
	<rect x="50" y="13" width="1" height="1"/>
	<rect x="50" y="14" width="1" height="1"/>
	<rect x="50" y="11" width="1" height="1"/>
	<rect x="50" y="12" width="1" height="1"/>
	<rect x="50" y="18" width="1" height="1"/>
	<rect x="50" y="29" width="1" height="1"/>
	<rect x="50" y="31" width="1" height="1"/>
	<rect x="50" y="28" width="1" height="1"/>
	<rect x="50" y="33" width="1" height="1"/>
	<rect x="50" y="32" width="1" height="1"/>
	<rect x="50" y="36" width="1" height="1"/>
	<rect x="44" y="12" width="3" height="3"/>
	<rect x="66" y="12" width="3" height="3"/>
	<rect x="44" y="34" width="3" height="3"/>
	<path fill="#00B900" d="M58.019,24.757c0.139,0,0.251-0.112,0.251-0.251c0-0.14-0.112-0.252-0.251-0.252l0,0h-0.699v-0.449h0.699
		c0.139,0,0.251-0.112,0.251-0.252c0-0.138-0.112-0.25-0.251-0.25l0,0h-0.952c-0.138,0-0.251,0.112-0.251,0.25v1.904
		c-0.001,0.139,0.111,0.252,0.249,0.253c0,0,0.001,0,0.002,0h0.952c0.139,0,0.251-0.112,0.251-0.251s-0.112-0.252-0.251-0.252l0,0
		h-0.699v-0.45H58.019z"/>
	<path fill="#00B900" d="M56.228,23.303c-0.139,0-0.251,0.112-0.251,0.25v1.178L55,23.402c-0.047-0.062-0.122-0.1-0.201-0.1
		c-0.026,0-0.052,0.004-0.077,0.013c-0.104,0.034-0.172,0.13-0.172,0.237v1.904c0,0.139,0.112,0.251,0.251,0.251
		c0.139,0,0.251-0.112,0.251-0.251l0,0v-1.176l0.975,1.327c0.047,0.063,0.121,0.101,0.199,0.102c0.027,0,0.054-0.004,0.08-0.013
		c0.103-0.034,0.172-0.131,0.171-0.238v-1.906C56.479,23.415,56.366,23.303,56.228,23.303z"/>
	<path fill="#00B900" d="M53.937,23.303c-0.139,0-0.251,0.112-0.251,0.25v1.904c-0.005,0.139,0.103,0.255,0.242,0.261
		c0.139,0.005,0.255-0.104,0.26-0.242c0-0.007,0-0.012,0-0.019v-1.904C54.188,23.415,54.075,23.303,53.937,23.303L53.937,23.303z"/>
	<path fill="#00B900" d="M53.204,25.205h-0.701v-1.652c0.005-0.138-0.104-0.254-0.242-0.26c-0.138-0.006-0.255,0.104-0.26,0.241
		c0,0.007,0,0.013,0,0.019v1.904C52,25.596,52.111,25.709,52.25,25.71c0.001,0,0.001,0,0.002,0h0.952
		c0.138,0,0.251-0.112,0.251-0.251s-0.113-0.252-0.251-0.252V25.205z"/>
	<path fill="#00B900" d="M59.792,25.698c-0.667,0-1.208-0.54-1.208-1.207c0-0.001,0-0.001,0-0.001l0,0
		c0-0.667,0.541-1.208,1.208-1.208l0,0c0.667,0,1.208,0.541,1.208,1.208l0,0v0.168c0,0.252-0.204,0.455-0.456,0.455l0,0l0,0
		c-0.252,0-0.457-0.203-0.457-0.455l0,0l0,0V24.49c0-0.162-0.131-0.294-0.294-0.294l0,0c-0.162,0-0.294,0.132-0.294,0.294l0,0
		c0.001,0.162,0.133,0.293,0.294,0.294l0,0c0.02,0.001,0.041-0.002,0.06-0.005l0,0c0.088-0.02,0.175,0.038,0.193,0.127l0,0
		c0.018,0.088-0.039,0.176-0.127,0.193l0,0l0,0c-0.042,0.009-0.083,0.013-0.125,0.013l0,0c-0.344,0.001-0.623-0.278-0.625-0.622l0,0
		l0,0c0-0.344,0.278-0.623,0.623-0.623c0,0,0,0,0.001,0l0,0c0.344,0,0.623,0.279,0.623,0.623l0,0l0,0v0.168
		c0,0.07,0.058,0.128,0.129,0.128l0,0c0.071-0.001,0.128-0.058,0.128-0.128l0,0V24.49c-0.001-0.484-0.394-0.879-0.88-0.88l0,0
		c-0.486,0.001-0.879,0.396-0.88,0.88l0,0c0.001,0.485,0.395,0.879,0.88,0.881l0,0c0.115,0,0.23-0.021,0.336-0.065l0,0
		c0.084-0.035,0.18,0.005,0.215,0.089l0,0l0,0c0.034,0.083-0.005,0.18-0.089,0.214l0,0C60.107,25.669,59.951,25.699,59.792,25.698
		L59.792,25.698L59.792,25.698z"/>
	<path d="M47.95,10c0,0-3.95,0-3.95,0c-1.104,0-2,0.895-2,2v3.949V17h1.05h4.9H49v-1.051V11.05V10H47.95z M48,16h-5v-4
		c0-0.553,0.447-1,1-1h4V16z"/>
	<path d="M42,33.051V37c0,1.105,0.895,2,2,2h3.949H49v-1.05v-4.899V32h-1.05h-4.9H42V33.051z M48,33v5h-4c-0.553,0-1-0.447-1-1v-4
		H48z"/>
	<path d="M71,15.949V12c0-1.105-0.895-2-2-2H65.05H64v1.05v4.899V17h1.05h4.9H71V15.949z M65,16v-5h4c0.553,0,1,0.447,1,1v4H65z"/>
</g>
<path fill="#F7D1C5" d="M23.293,48.297c-2.822,0-5.139-0.165-5.916-0.495c-0.18-0.076-0.312-0.233-0.354-0.424
	c-0.423-1.881-0.823-6.574-1.144-11.763c-0.026-0.032-0.061-0.055-0.08-0.094c-0.001-0.002-0.003-0.003-0.004-0.005
	c-0.017-0.035-0.027-0.071-0.042-0.106l0.001,0c-0.074-0.168-0.133-0.34-0.18-0.514c0-0.001,0-0.002-0.001-0.003
	c-0.046-0.171-0.079-0.345-0.103-0.52c0-0.004-0.001-0.007-0.001-0.011c-0.089-0.691-0.013-1.404,0.114-2.099
	c0.02-0.106,0.041-0.212,0.063-0.317c0.054-0.265,0.112-0.527,0.171-0.782c0.155-0.678,0.296-1.317,0.322-1.882
	c0,0.002,0,0.004,0,0.006c0.001-0.024,0.008-0.054,0.009-0.078c0-0.284-0.017-0.545-0.049-0.782c0,0.006,0.001,0.011,0.001,0.017
	c-0.024-0.181-0.058-0.344-0.1-0.493c-0.004-0.015-0.009-0.029-0.013-0.043c-0.083-0.281-0.199-0.494-0.339-0.63
	c-0.014-0.014-0.029-0.026-0.043-0.038c-0.071-0.059-0.146-0.104-0.229-0.122c-0.068-0.014-0.142-0.016-0.219-0.005
	c-0.391,0.052-0.889,0.408-1.332,1.034c-0.176,0.251-0.344,0.545-0.492,0.88c-1.2,2.422-1.288,4.358-1.402,6.81l-0.027,0.575l0,0
	l-0.009,0.191c-0.048,0.562-0.004,1.17,0.042,1.817c0.11,1.553,0.235,3.314-1.038,4.402c-0.479,0.41-1.064,1.052-1.684,1.731
	c-1.007,1.105-2.048,2.237-3.021,2.845l7.391,8.529c0.225-0.295,0.503-0.714,0.796-1.164c0.948-1.448,2.021-3.09,3.182-3.539
	c0.667-0.228,1.725-0.268,2.844-0.31c1.045-0.038,2.229-0.083,2.794-0.29c0.941-0.347,2.366-1.067,3.482-2.403
	C25.518,48.272,24.368,48.297,23.293,48.297z"/>
<path d="M20.371,22.532c-0.021-0.239-0.032-0.465-0.043-0.686c-0.014-0.267-0.028-0.525-0.054-0.783
	c0.271-0.032,0.549-0.087,0.848-0.193c0.315-0.111,0.48-0.456,0.369-0.771c-0.112-0.315-0.457-0.479-0.771-0.368
	c-0.414,0.146-0.745,0.18-1.042,0.125c-0.032-0.006-0.064-0.004-0.096-0.005c-0.313-0.065-0.63,0.13-0.705,0.448
	c-0.046,0.195,0.015,0.383,0.134,0.524c0.06,0.34,0.089,0.689,0.11,1.085c0.012,0.236,0.025,0.475,0.047,0.725
	c0.027,0.316,0.291,0.554,0.602,0.554c0.017,0,0.036,0,0.052-0.004C20.154,23.158,20.4,22.862,20.371,22.532z"/>
<path d="M32.106,20.345c0.033,0.43,0.084,0.887,0.188,1.351c0.062,0.281,0.312,0.474,0.589,0.474c0.042,0,0.086-0.005,0.131-0.015
	c0.326-0.07,0.531-0.393,0.459-0.72c-0.125-0.564-0.162-1.132-0.195-1.681c-0.019-0.295-0.315-0.54-0.608-0.57
	c-0.512-0.052-1.09-0.113-1.541-0.043c-0.329,0.051-0.557,0.357-0.506,0.689c0.049,0.328,0.348,0.56,0.689,0.505
	C31.505,20.308,31.796,20.318,32.106,20.345z"/>
<path d="M33.474,33.584c-0.33,0.049-0.557,0.357-0.506,0.688c0.029,0.195,0.017,0.482-0.009,0.793
	c-0.429,0.033-0.886,0.083-1.351,0.186c-0.326,0.071-0.531,0.395-0.459,0.72c0.062,0.283,0.311,0.475,0.589,0.475
	c0.043,0,0.087-0.005,0.13-0.015c0.566-0.124,1.133-0.16,1.682-0.195c0.295-0.018,0.54-0.312,0.569-0.606
	c0.054-0.511,0.112-1.091,0.044-1.541C34.113,33.76,33.807,33.529,33.474,33.584z"/>
<path d="M22.254,35.314c-0.199,0.03-0.491,0.018-0.796-0.006c-0.032-0.431-0.082-0.888-0.186-1.354
	c-0.072-0.326-0.399-0.53-0.72-0.459c-0.326,0.074-0.531,0.396-0.459,0.722c0.125,0.564,0.16,1.157,0.19,1.679
	c0.017,0.295,0.287,0.539,0.583,0.57c0.351,0.036,0.734,0.075,1.087,0.075c0.169,0,0.331-0.009,0.48-0.031
	c0.33-0.049,0.558-0.357,0.509-0.687C22.892,35.49,22.583,35.267,22.254,35.314z"/>
<path d="M37.987,33.082c-0.032-2.599-0.067-5.286-0.23-9.076c-0.053-1.214-0.099-2.388-0.143-3.507
	c-0.118-2.994-0.216-5.222-0.341-6.875c0-0.002,0-0.003,0-0.005c0-0.001-0.001-0.003-0.001-0.004
	c-0.204-2.685-0.479-3.848-1.025-4.274c-0.768-0.601-6.803-0.273-10.332-0.023c-4.347,0.307-9.687,0.84-10.449,1.636
	c-0.187,0.194-0.668,0.708-0.078,14.965c-0.074-0.006-0.147-0.022-0.222-0.02c-1.098,0.043-2.23,1.046-2.926,2.616
	c-0.052,0.105-0.091,0.206-0.14,0.311c-1.157,2.482-1.264,4.565-1.374,6.958l-0.004,0.095l-0.031,0.644c0,0.005,0,0.011,0,0.016
	l0,0.005c0,0,0,0,0,0.001c-0.051,0.631-0.003,1.309,0.043,1.964c0.098,1.391,0.191,2.708-0.618,3.399
	c-0.536,0.459-1.146,1.127-1.792,1.835c-0.932,1.021-1.989,2.182-2.834,2.683c-0.286,0.171-0.381,0.542-0.21,0.83
	c0.172,0.286,0.542,0.379,0.829,0.209c0.029-0.017,0.059-0.044,0.087-0.062c0.974-0.607,2.014-1.74,3.021-2.845
	c0.62-0.679,1.205-1.321,1.684-1.731c1.273-1.088,1.148-2.849,1.038-4.402c-0.045-0.647-0.09-1.256-0.042-1.817l0.009-0.191
	l0.027-0.575c0.114-2.452,0.202-4.388,1.402-6.81c0.148-0.335,0.316-0.629,0.492-0.88c0.443-0.626,0.941-0.982,1.332-1.034
	c0.078-0.01,0.151-0.009,0.219,0.005c0.083,0.018,0.159,0.063,0.229,0.122c0.015,0.012,0.029,0.024,0.043,0.038
	c0.141,0.136,0.256,0.35,0.339,0.63c0.004,0.015,0.009,0.029,0.013,0.043c0.042,0.148,0.076,0.312,0.1,0.493
	c0-0.006,0-0.011-0.001-0.017c0.033,0.236,0.05,0.498,0.049,0.782c-0.001,0.024-0.008,0.054-0.009,0.078c0-0.002,0-0.004,0-0.006
	c-0.026,0.565-0.167,1.204-0.322,1.882c-0.059,0.255-0.117,0.517-0.171,0.782c-0.006,0.029-0.012,0.06-0.018,0.089
	c-0.016,0.077-0.031,0.153-0.046,0.23c-0.127,0.693-0.203,1.404-0.114,2.095c0,0.005,0.001,0.011,0.002,0.017
	c0.023,0.173,0.056,0.345,0.102,0.514c0,0.001,0.001,0.003,0.001,0.004c0,0,0,0,0,0.001c0.047,0.174,0.106,0.345,0.18,0.514
	l-0.001,0c0.016,0.035,0.026,0.071,0.042,0.106c0.001,0.002,0.003,0.003,0.004,0.005c0.019,0.039,0.054,0.062,0.08,0.094
	c0.321,5.188,0.721,9.881,1.144,11.763c0.042,0.191,0.174,0.349,0.354,0.424c0.776,0.33,3.093,0.495,5.916,0.495
	c1.075,0,2.225-0.025,3.39-0.074c-1.116,1.336-2.541,2.056-3.482,2.403c-0.565,0.207-1.75,0.252-2.794,0.29
	c-1.119,0.042-2.177,0.082-2.844,0.31c-1.16,0.449-2.234,2.091-3.182,3.539c-0.292,0.447-0.567,0.863-0.792,1.157
	c-0.001,0.002-0.003,0.005-0.005,0.007c-0.022,0.028-0.046,0.062-0.067,0.089c-0.208,0.263-0.166,0.642,0.095,0.849
	C13.724,56.958,13.856,57,13.989,57c0.178,0,0.354-0.076,0.474-0.227c0.27-0.339,0.576-0.805,0.929-1.346
	c0.764-1.168,1.81-2.765,2.584-3.066c0.476-0.162,1.492-0.2,2.476-0.236c1.245-0.046,2.42-0.09,3.166-0.363
	c1.984-0.729,3.577-2.005,4.608-3.616c4.018-0.24,7.929-0.766,9.396-1.586c0.5-0.28,0.784-0.623,0.844-1.021
	c0.006-0.043,0.009-0.089,0.005-0.132C38.074,39.96,38.031,36.62,37.987,33.082z M16.414,11.754
	c1.811-0.832,17.176-1.999,19.103-1.434c0.218,0.322,0.377,1.365,0.502,2.806c-1.294,0.117-2.603,0.24-3.935,0.367
	c-5.2,0.501-10.568,1.007-15.763,1.039C16.322,13.137,16.352,12.148,16.414,11.754z M16.871,31.994
	c0.041-0.188,0.083-0.375,0.125-0.562c0.168-0.729,0.34-1.484,0.361-2.203c0.006-1.402-0.337-2.202-0.737-2.67
	c-0.167-4.134-0.272-8.031-0.295-10.819c5.249-0.032,10.646-0.54,15.874-1.043c1.324-0.126,2.624-0.25,3.911-0.365
	c0.122,1.818,0.209,4.031,0.294,6.215c0.044,1.121,0.09,2.295,0.144,3.51c0.164,3.771,0.197,6.449,0.229,9.041
	c0.031,2.441,0.063,4.804,0.208,7.809c-5.865,0.809-12.221,1.28-19.41,1.434C17.308,39.467,17.067,35.797,16.871,31.994z
	 M27.645,44.249c0.358,0.143,0.552,0.35,0.575,0.618c0.024,0.292-0.158,0.627-0.434,0.797c-0.248,0.149-0.506,0.14-0.772-0.025
	c0,0,0,0-0.001,0c-0.56-0.347-0.589-0.809-0.445-1.1c0.102-0.205,0.316-0.38,0.641-0.38C27.337,44.158,27.482,44.187,27.645,44.249z
	 M18.135,46.788c-0.152-0.782-0.3-1.894-0.441-3.24c3.008-0.065,5.864-0.19,8.608-0.368c-0.367,0.194-0.652,0.488-0.817,0.82
	c-0.387,0.779-0.273,1.945,0.889,2.665c0.337,0.212,0.697,0.316,1.054,0.316c0.34,0,0.676-0.096,0.988-0.287
	c0.667-0.408,1.071-1.183,1.008-1.928c-0.062-0.729-0.545-1.326-1.337-1.642c-0.062-0.024-0.12-0.033-0.18-0.052
	c3.194-0.237,6.228-0.554,9.143-0.953c0.056,1.001,0.121,2.062,0.206,3.235C36.18,46.651,21.431,47.721,18.135,46.788z"/>
</svg>
